STARTFONT 2.3
FONT -FontForge-Butcherman-Book-R-Normal--28-280-72-72-P-151-ISO10646-1
SIZE 28 72 72  2
FONTBOUNDINGBOX 43 55 -3 -19
COMMENT "Generated by fontforge, http://fontforge.sourceforge.net"
COMMENT "Copyright (c) 2011, Typomondo, with Reserved Font Name  "Butcherman"."
STARTPROPERTIES 41
FOUNDRY "FontForge"
FAMILY_NAME "Butcherman"
WEIGHT_NAME "Book"
SLANT "R"
SETWIDTH_NAME "Normal"
ADD_STYLE_NAME ""
PIXEL_SIZE 28
POINT_SIZE 280
RESOLUTION_X 72
RESOLUTION_Y 72
SPACING "P"
AVERAGE_WIDTH 151
CHARSET_REGISTRY "ISO10646"
CHARSET_ENCODING "1"
FONTNAME_REGISTRY ""
CHARSET_COLLECTIONS "ISO8859-2 ISO8859-9 ISO8859-4 ISO10646-1"
BITS_PER_PIXEL 2
FONT_NAME "Butcherman-Regular"
FACE_NAME "Butcherman Regular"
COPYRIGHT "Copyright (c) 2011, Typomondo, with Reserved Font Name  "Butcherman"."
FONT_VERSION "001.004"
FONT_ASCENT 22
FONT_DESCENT 6
UNDERLINE_POSITION -3
UNDERLINE_THICKNESS 2
X_HEIGHT 20
CAP_HEIGHT 20
DEFAULT_CHAR 3
RAW_ASCENT 799
RAW_DESCENT 200
NORM_SPACE 5
RELATIVE_WEIGHT 40
RELATIVE_SETWIDTH 50
SUPERSCRIPT_X 0
SUPERSCRIPT_Y 9
SUPERSCRIPT_SIZE 16
SUBSCRIPT_X 0
SUBSCRIPT_Y 2
SUBSCRIPT_SIZE 16
AVG_LOWERCASE_WIDTH 162
AVG_UPPERCASE_WIDTH 155
ENDPROPERTIES
CHARS 331
STARTCHAR NULL.dup1
ENCODING 0
SWIDTH 161 0
DWIDTH 5 0
BBX 1 1 0 0
BITMAP
00
ENDCHAR
STARTCHAR CR
ENCODING 13
SWIDTH 161 0
DWIDTH 5 0
BBX 1 1 0 0
BITMAP
00
ENDCHAR
STARTCHAR space
ENCODING 32
SWIDTH 161 0
DWIDTH 5 0
BBX 1 1 0 0
BITMAP
00
ENDCHAR
STARTCHAR exclam
ENCODING 33
SWIDTH 350 0
DWIDTH 10 0
BBX 9 34 0 1
BITMAP
015400
6FFF40
3FFF80
3FFF80
2FFF00
0FFF00
1FFF00
1FFE00
1FFE00
1FFE00
0FFD00
0BFC00
07FC00
07FD00
03FC00
03FC00
03F800
03FC00
03FC00
03F800
03F800
02B400
000400
000000
000000
1ABE40
3FFF40
1FFF40
0FFF40
0FFF80
0FFF80
0FFF80
0FFF40
0A9500
ENDCHAR
STARTCHAR quotedbl
ENCODING 34
SWIDTH 541 0
DWIDTH 15 0
BBX 13 11 1 10
BITMAP
66916A40
BFE2FF80
7FE1FF80
7FE0FF40
3FE0FF40
3FD0BF00
2FD07F00
1FC07F00
1FC03E00
0FC03D00
05002400
ENDCHAR
STARTCHAR numbersign
ENCODING 35
SWIDTH 583 0
DWIDTH 16 0
BBX 16 25 0 -3
BITMAP
00028028
0007807C
000B40B8
000F00F4
001F01F4
001E01F0
0BFFFFFE
0BFFFFFD
0BFFFFFC
0BFFFFFC
06FFBFFC
00F01F40
01F01F00
02E02E00
03D02E00
03C02D00
BFFFFFD0
BFFFFF80
BFFFFF80
1BA5B640
0E00B000
2D01E000
3D01D000
3C02D000
04018000
ENDCHAR
STARTCHAR dollar
ENCODING 36
SWIDTH 534 0
DWIDTH 15 0
BBX 13 35 1 -8
BITMAP
001D0000
001E0000
001E0000
002D0000
002D0000
001E0000
001E4000
02FFF400
0FFFFE00
2FFFFF80
3FFFFF80
BFFFFF80
FFFFFF80
FFFFFF80
FFFFFF80
FFF6FF40
BFE1FF40
BFF54140
7FFFD000
2FFFF400
07FFFC00
006FFD00
0542FE00
3FE1FE00
2FF7FD00
1FFFF800
0BFFF400
02AF5000
001D0000
001D0000
002D0000
002D0000
002D0000
002D0000
00140000
ENDCHAR
STARTCHAR percent
ENCODING 37
SWIDTH 828 0
DWIDTH 23 0
BBX 22 25 1 -3
BITMAP
000000280000
000000B80000
2FD001F80000
BFF801F40000
FFFC02E00000
FFFC02E00000
FFFD03E00000
F8FD03D00000
F8FC07C06900
F4FC0B81FF40
B8F80F42FFC0
BDF41F03FFC0
7FE03D02FFC0
07907D02FFC0
0000BC02EFC0
0000F803EFD0
0001F407CBC0
0000F007DF80
0000E003FF40
0002D0006D00
0003C0000000
000780000000
000780000000
000B40000000
000100000000
ENDCHAR
STARTCHAR ampersand
ENCODING 38
SWIDTH 522 0
DWIDTH 15 0
BBX 13 15 1 3
BITMAP
00AA4000
00FF8000
00FF8000
00FF4000
00BF4000
FFFFFF40
FFFFFF40
FFFFFF40
FFFFFF40
BFFFFF40
00FF8000
00FF8000
00FF4000
00FF4000
00550000
ENDCHAR
STARTCHAR quotesingle
ENCODING 39
SWIDTH 300 0
DWIDTH 8 0
BBX 6 11 1 10
BITMAP
5690
BFE0
7FE0
7FE0
3FE0
3FD0
2FD0
2FD0
1FC0
0FC0
0940
ENDCHAR
STARTCHAR parenleft
ENCODING 40
SWIDTH 372 0
DWIDTH 10 0
BBX 9 28 1 -4
BITMAP
000180
002FC0
00FF80
02FF80
07FF80
0FFF40
2FFF40
3FFF00
7FFF00
7FFE00
BFF000
BFD000
BFD000
FFC000
FFC000
FFC000
FFC000
BFC000
BFC000
7FD000
3FE000
2FF400
1FFD00
0FFE00
07FF00
02FF00
007E00
000400
ENDCHAR
STARTCHAR parenright
ENCODING 41
SWIDTH 338 0
DWIDTH 9 0
BBX 8 28 0 -4
BITMAP
1000
3E80
7FE0
3FF8
3FFE
3FFF
2FFF
2FFF
2FFF
2FFF
17FF
01FF
00FF
00FF
00BF
00BE
00BE
00FE
00FE
01FD
01FD
02FC
02F8
07F4
3FE0
7F80
7F00
6900
ENDCHAR
STARTCHAR asterisk
ENCODING 42
SWIDTH 513 0
DWIDTH 14 0
BBX 14 17 0 6
BITMAP
00001000
00007400
01E07C00
02F0BC00
01F9F800
00FEF400
00BFF000
25BFE540
3FFFFFE0
7FFFFFD0
2ABFEA80
003FE000
007FF000
00BDF800
00F8FC00
01F47C00
01200000
ENDCHAR
STARTCHAR plus
ENCODING 43
SWIDTH 458 0
DWIDTH 13 0
BBX 11 12 1 4
BITMAP
02FD00
01FD00
01FD00
6AFEA4
BFFFF4
BFFFF4
BFFFF4
6AFE64
02FD00
02FD00
02FD00
005400
ENDCHAR
STARTCHAR comma
ENCODING 44
SWIDTH 361 0
DWIDTH 10 0
BBX 8 14 1 -4
BITMAP
5954
7FFE
BFFE
BFFE
BFFE
BFFE
BFFE
BFFE
6AFE
007D
00BD
00BC
00FC
00FC
ENDCHAR
STARTCHAR hyphen
ENCODING 45
SWIDTH 478 0
DWIDTH 13 0
BBX 11 6 1 8
BITMAP
155554
7FFFF8
7FFFF4
7FFFF0
7FFFF0
5BEAB0
ENDCHAR
STARTCHAR period
ENCODING 46
SWIDTH 374 0
DWIDTH 10 0
BBX 8 9 1 1
BITMAP
56BA
7FFF
7FFF
3FFF
3FFF
3FFF
3FFF
2FFF
2A55
ENDCHAR
STARTCHAR slash
ENCODING 47
SWIDTH 291 0
DWIDTH 8 0
BBX 9 25 -1 -3
BITMAP
000280
0007C0
000B80
000F40
001F00
001F00
002E00
002E00
003D00
00BC00
00F800
01F400
02F000
02E000
03D000
07C000
078000
074000
0B4000
0F0000
1E0000
2D0000
3C0000
7C0000
040000
ENDCHAR
STARTCHAR zero
ENCODING 48
SWIDTH 528 0
DWIDTH 15 0
BBX 13 23 1 -2
BITMAP
00694000
07FFE000
1FFFF800
3FFFFE00
BFFFFF40
BFFFFF40
BFFFFF40
BFFFFF40
7FFFFF40
7FE7FF40
7FC3FF40
7F83FF40
7F82FF40
7F82FF00
7F82FF00
3F82FE00
3FC3FD00
2FD7FC00
2FFFF800
1FFFF400
0AFFE000
00AF9000
001A0000
ENDCHAR
STARTCHAR one
ENCODING 49
SWIDTH 366 0
DWIDTH 10 0
BBX 9 22 0 -1
BITMAP
001A40
01BF80
6FFF80
FFFF80
7FFF80
13FFC0
03FFC0
02FF80
02FF80
02FF40
02FF00
01FF40
01FF40
01FF40
01FF00
00FF00
00FF00
00FF00
00FF00
00BE00
009F00
000100
ENDCHAR
STARTCHAR two
ENCODING 50
SWIDTH 575 0
DWIDTH 16 0
BBX 15 24 1 -3
BITMAP
01AA4000
07FFF400
2FFFFD00
7FFFFF00
BFFFFF40
7FFFFF80
BFFFFFC0
BFFFFF80
7FFFFF80
7FFBFF80
7FD2FF40
3FC2FF40
154BFF00
000BFE00
000BFD00
001FF800
003FF000
00FFFAA8
2BFFFFF4
7FFFFFF4
7FFFFBF0
BFFE96F0
AE5405D0
00000080
ENDCHAR
STARTCHAR three
ENCODING 51
SWIDTH 517 0
DWIDTH 15 0
BBX 12 23 1 -2
BITMAP
01A900
0BFFD0
3FFFF4
FFFFFC
FFFFFE
BFFFFF
BFFFFF
BFFFFF
BFFFFF
BFEBFF
7FC7FF
6547FE
001BFD
007FFC
007FFD
0016FE
0000FF
06F4FF
0BF8FE
03FFFC
02FFF8
00FFF0
005000
ENDCHAR
STARTCHAR four
ENCODING 52
SWIDTH 466 0
DWIDTH 13 0
BBX 12 28 1 -7
BITMAP
6AAAB8
2FFFD0
0FFF80
1FFE00
2FFD00
2FFD00
2FFC00
3FF800
3FF400
3FF400
2FF000
2FF000
2FEBF4
3FDBF0
3FDBE0
7FC7E0
7FDBE0
BFFFF9
BFFFFC
BFFFFC
FFFFFC
506BFC
0003D0
0003C0
0003C0
0003C0
0002C0
000040
ENDCHAR
STARTCHAR five
ENCODING 53
SWIDTH 583 0
DWIDTH 16 0
BBX 15 23 1 -2
BITMAP
6ABA9550
BFFFFFF8
7FFFFFF4
BFFFFFF4
7FFFFFF0
BFFFFFF0
BFFFFFE0
7FFFFFE0
7FFFFFE0
7FEFFFD0
BFD05590
7FC00000
3FDAA800
3FFFFC00
2FFFFD00
0056FE00
0000FE00
06F8BE00
07F8FD00
03FFFC00
01FFF400
00FFF000
00540000
ENDCHAR
STARTCHAR six
ENCODING 54
SWIDTH 582 0
DWIDTH 16 0
BBX 15 24 1 -3
BITMAP
01654000
0BFFF900
2FFFFF40
BFFFFFC0
BFFFFFE0
FFFFFFF4
FFFFFFF0
BFFFFFF0
BFFFFFF0
BFFBFFE0
7FE1FFD0
7FE0BFC0
3FD0BFC0
2FE54540
1FFFFA40
1FFAFFC0
0FF03FC0
0FF43FC0
0FF87FC0
0BFFFFC0
07FFFFC0
02FFFF80
00AADE00
00040000
ENDCHAR
STARTCHAR seven
ENCODING 55
SWIDTH 624 0
DWIDTH 17 0
BBX 18 24 0 -3
BITMAP
0156AAEA90
7FFFFFFFC0
7FFFFFFF80
3FFFFFFF40
3FFFFFFF00
2FFFFFFF00
2FFFFFFE00
1FFFFFFD00
1FFFFFFC00
1FFFFFF800
09550FF800
00001FF000
00002FE000
00003FD000
00007F8000
0000BF4000
0000FF0000
0001FD0000
0002FC0000
0003F80000
0007F00000
000BE00000
001FD00000
0015800000
ENDCHAR
STARTCHAR eight
ENCODING 56
SWIDTH 459 0
DWIDTH 13 0
BBX 11 24 1 -3
BITMAP
06AA40
7FFFE0
BFFFF8
FFFFF8
FFFFF8
BFFFF8
BFFFF8
BFFFF4
7FFFF4
7F8BF0
3F8BE0
2F8BE0
2FEFD0
0FFFC0
0BFF80
1FAFC0
1F4FC0
1F4BC0
0F4FC0
0FFFC0
0BFF80
03EF00
004000
004000
ENDCHAR
STARTCHAR nine
ENCODING 57
SWIDTH 584 0
DWIDTH 16 0
BBX 14 25 1 -4
BITMAP
00169000
02FFFD00
0BFFFF80
1FFFFFE0
3FFFFFD0
7FFFFFE0
BFFFFFF0
BFFFFFF0
FFFFFFF0
BFF6FFF0
BFF0BFF0
7FF5BFF0
3FFFFFF0
1FFFFFE0
07FFFFD0
0050BFC0
05A0BF80
3FF4FF40
2FFAFF00
1FFFFC00
0BFFF800
02AAA400
00050000
00040000
00040000
ENDCHAR
STARTCHAR colon
ENCODING 58
SWIDTH 386 0
DWIDTH 11 0
BBX 8 23 1 1
BITMAP
16A9
BFFF
3FFF
3FFF
3FFF
3FFF
3FFF
2FFF
2E59
0000
0000
0000
0000
0000
6AFA
7FFE
7FFE
7FFF
3FFF
3FFF
2FFF
2FFF
2A45
ENDCHAR
STARTCHAR semicolon
ENCODING 59
SWIDTH 375 0
DWIDTH 11 0
BBX 8 29 1 -5
BITMAP
16E9
BFFE
7FFF
3FFE
3FFE
3FFE
3FFE
3FFE
3955
0000
0000
0000
0000
0000
6515
7FFE
7FFE
3FFE
7FFF
7FFE
7FFE
BFFE
6AFE
007E
007D
00BD
00BD
00BC
0004
ENDCHAR
STARTCHAR less
ENCODING 60
SWIDTH 459 0
DWIDTH 13 0
BBX 11 16 1 2
BITMAP
004000
02FFF8
02FFF0
03FFC0
0BFF40
1FFE00
7FFC00
FFF400
FFF000
7FFC00
3FFC00
0FFE00
07FF80
01FFD0
00BFF8
001AF8
ENDCHAR
STARTCHAR equal
ENCODING 61
SWIDTH 485 0
DWIDTH 14 0
BBX 11 9 1 8
BITMAP
3FFFB8
7FFFF8
7FFFF8
155554
000000
155554
7FFFF8
7FFFF8
2BEAA4
ENDCHAR
STARTCHAR greater
ENCODING 62
SWIDTH 432 0
DWIDTH 12 0
BBX 10 16 1 2
BITMAP
551000
FFF800
7FFC00
2FFD00
0BFF00
03FF80
01FFD0
00BFF0
00BFF0
00FFE0
01FFD0
07FF40
1FFE00
7FFC00
FFF400
AA9000
ENDCHAR
STARTCHAR question
ENCODING 63
SWIDTH 577 0
DWIDTH 16 0
BBX 13 25 1 -3
BITMAP
01AA9000
0BFFF400
2FFFFE00
7FFFFF40
BFFFFF80
BFFFFFC0
BFFFFFC0
7FFFFFC0
7FF7FFC0
3FD1FF80
1552FF80
0003FF00
000BFD00
000BFC00
000FF400
000FE000
001FC000
00154000
00000000
00564000
00FFC000
00BFC000
007FC000
007FD000
007E8000
ENDCHAR
STARTCHAR at
ENCODING 64
SWIDTH 930 0
DWIDTH 26 0
BBX 25 30 1 -6
BITMAP
0000BFE8000000
0007FFFF400000
001FFFFFE00000
007FE95BF80000
01FD0000BE0000
03E06AA92F8000
0BC2FFFE0FD000
0F47FFFF8BF000
1E0BFFFFC3F800
3D0FFFFFC2FC00
7D0FFFFF82FE00
BC0BFFFF81FE00
BC07FEBF41FF00
F803FC7F41FF00
F803F83F40FF40
B803903F00FF00
BC016FFF00BF00
BC03FEBF40BF00
BD03F43FC07E00
BD03F47FD07D00
7E03FEBFF9BC00
3F03FFFFBFF800
2F82FFFDBFF400
1FC05A942E4000
0BE00000000000
07F40000000000
01FE0001000000
007FEABF000000
001FFFFF800000
0001BFFA000000
ENDCHAR
STARTCHAR A
ENCODING 65
SWIDTH 494 0
DWIDTH 14 0
BBX 12 27 1 -6
BITMAP
005400
BFFFFA
2FFFF8
0FFFF4
0FFFF0
0FFFE0
0FFFE0
0FFFE0
0FFFE0
0FFFD0
0FFFD0
0FEFD0
0FDFD0
0FDBD0
0FCBD0
0FDBD0
0FFFD0
1FFFD0
1FFFC0
0FEFC0
0FCB80
0F8B80
0B4B40
084140
040240
000500
000400
ENDCHAR
STARTCHAR B
ENCODING 66
SWIDTH 517 0
DWIDTH 14 0
BBX 13 22 1 -1
BITMAP
05AA9400
FFFFFE00
7FFFFF40
2FFFFF40
1FFFFF40
0FFFFF40
0FFFFF40
0FFFFF00
0FFFFF00
0BF5FE00
0BF4FE00
0BF4FD00
0BFEFD00
0BFFF800
0BFFF400
07FBF800
07F0FC00
07F0F800
07F5F800
07FFF800
07FFF400
022AE000
ENDCHAR
STARTCHAR C
ENCODING 67
SWIDTH 504 0
DWIDTH 14 0
BBX 14 24 0 -3
BITMAP
006AA000
01FFFD00
0BFFFF40
1FFFFFC0
3FFFFFD0
3FFFFFD0
7FFFFFD0
3FFFFFD0
3FFFFFD0
3FFDFFD0
2FF4BFD0
2FF47FC0
1FF41540
1FF40000
0FF00000
0FF46400
0BF4BF40
0BF8BF00
07FEFF00
03FFFD00
02FFF800
0076F000
00218000
00118000
ENDCHAR
STARTCHAR D
ENCODING 68
SWIDTH 522 0
DWIDTH 15 0
BBX 13 25 1 -4
BITMAP
00155000
6BFFF800
BFFFFE00
7FFFFF80
3FFFFFC0
2FFFFFC0
2FFFFFC0
1FFFFFC0
1FFFFFC0
1FFDBF80
0FF83F80
0FF43F40
0FF43F00
0BF43F00
0BF43E00
0BF47E00
07F47D00
07F9FD00
03FFFD00
07FFFC00
039BF400
030B9000
020A4000
01090000
00040000
ENDCHAR
STARTCHAR E
ENCODING 69
SWIDTH 570 0
DWIDTH 16 0
BBX 14 23 1 -2
BITMAP
15AA9500
FFFFFFE0
7FFFFFD0
2FFFFFC0
1FFFFF80
1FFFFF40
1FFFFF40
1FFFFF00
1FFFFE00
0FF9AD00
0FF40000
0FF94000
0BFFF000
0BFFF000
0BFFF000
0BFAA000
07F40000
07FA9400
07FFF400
03FFF000
022FB000
022E2000
00101000
ENDCHAR
STARTCHAR F
ENCODING 70
SWIDTH 559 0
DWIDTH 16 0
BBX 15 23 0 -2
BITMAP
05555500
7FFFFFF4
1FFFFFF0
07FFFFD0
02FFFFD0
02FFFFC0
02FFFFC0
02FFFFC0
02FFFF80
01FFFF80
00FF0180
00FF9500
00FFFF00
00FFFF00
00FFFF00
00BF9600
00BF4000
00BF4000
00FF4000
00FF4000
00FF8000
009E4000
00444000
ENDCHAR
STARTCHAR G
ENCODING 71
SWIDTH 499 0
DWIDTH 14 0
BBX 13 24 1 -3
BITMAP
00550000
0BFFD000
7FFFF800
BFFFFE00
FFFFFF00
FFFFFF40
FFFFFF40
FFFFFF40
BFFFFF00
BFDBFF00
BF83FE00
7F83FE00
7F81AA00
3F855400
3F8BFE00
3FCBFE00
2FCAFE00
2FD1FE00
1FE7FE00
0FFFFD00
0BFFFC00
02AFF400
00558000
00800000
ENDCHAR
STARTCHAR H
ENCODING 72
SWIDTH 726 0
DWIDTH 20 0
BBX 20 27 0 -6
BITMAP
0005919540
5ABFC2FFFD
1FFF41FFF8
0BFF40FFF4
0BFF41FFF0
07FF41FFD0
07FF42FFC0
03FF42FFC0
02FF42FF80
02FF42FF40
01FF42FF00
01FF56FF00
00FFFFFE00
00FFFFFE00
00FFFFFE00
00BF83FD00
00BF47FD00
00BF87FC00
007F87FC00
007F87F800
007F8BF800
00A503F800
0000015400
0000000000
0000040000
0000040000
0000040000
ENDCHAR
STARTCHAR I
ENCODING 73
SWIDTH 401 0
DWIDTH 11 0
BBX 10 23 1 -2
BITMAP
AAAA90
FFFFC0
7FFF80
1FFF00
0FFF00
0BFF00
0BFF00
0FFF00
0FFE00
0FFE00
0BFD00
0BFD00
0BFD00
0BFD00
07FC00
07FC00
03FC00
03FC00
03FC00
02FC00
027C00
012400
001000
ENDCHAR
STARTCHAR J
ENCODING 74
SWIDTH 455 0
DWIDTH 13 0
BBX 13 22 -1 -1
BITMAP
00155400
002FFF80
001FFF00
000BFF00
000BFE00
0007FD00
000BFC00
000BF800
000BF800
000FF800
000FF400
000FF400
000BF400
000BF000
1B4FF000
BF4BF000
7F4FE000
7F5FE000
7FFFD000
2FFFC000
0BAE8000
00584000
ENDCHAR
STARTCHAR K
ENCODING 75
SWIDTH 580 0
DWIDTH 16 0
BBX 16 22 0 -1
BITMAP
16950540
7FFE1FFD
0FFE1FF4
0BFE2FD0
07FE3F40
02FF3E00
02FFBE00
01FFFD00
00FFFD00
00FFFD00
00FFFD00
00FFFD00
00BFFD00
00BFFD00
007FFE00
007FFE00
007FBF00
007E3F00
003E2F40
003E1F80
003F1F80
00221980
ENDCHAR
STARTCHAR L
ENCODING 76
SWIDTH 416 0
DWIDTH 12 0
BBX 13 23 0 -2
BITMAP
6AA99000
2FFFC000
0FFF4000
0FFE0000
0FFE0000
0BFE0000
0BFE0000
0BFE0000
0BFD0000
0BFD0000
03FE0000
03FE0000
03FE0000
03FE0000
02FE0000
02FD0000
02FE0000
02FFEA40
01FFFF40
01FFFF00
00FEFF00
0056AE00
00050800
ENDCHAR
STARTCHAR M
ENCODING 77
SWIDTH 740 0
DWIDTH 21 0
BBX 19 23 1 -1
BITMAP
0000040000
16AF0EF940
FFFF0BFFF8
7FFF4BFFD0
2FFF8FFFC0
1FFFDFFFC0
1FFFEFFF80
1FFFFFFF80
0FFFFFFF40
0BFFFFFF40
0BFFFFFF40
0BFFFFFF40
0BFFFFFF40
07FBFEFF40
07FAFEFF40
03FDFDFF40
02FCFCFF00
02FDFCFF00
02FDF8FE00
01FDB4FE00
01FD75FD00
0195214D00
00C0000800
ENDCHAR
STARTCHAR N
ENCODING 78
SWIDTH 610 0
DWIDTH 17 0
BBX 15 26 1 -5
BITMAP
05586500
BFF87FF8
BFFC3FF4
2FFD3FE0
2FFE3FD0
1FFF3FD0
1FFF7FD0
1FFFBFC0
1FFFFFC0
0FFFFF80
0FFFFF80
0FFFFF80
0BFFFF40
07FFFF40
07FBFF40
03F7FF40
03F6FF00
03F6FF00
03F5FF00
02F4FE00
02F4BE00
02F87A00
02487900
02040000
01044000
00040000
ENDCHAR
STARTCHAR O
ENCODING 79
SWIDTH 504 0
DWIDTH 14 0
BBX 14 24 0 -3
BITMAP
001A4000
01FFF900
0BFFFF40
1FFFFFC0
3FFFFFC0
7FFFFFD0
3FFFFFD0
3FFFFFC0
3FFFFFD0
2FF9FFD0
2FF0FFD0
1FE0BFD0
1FE0BFD0
1FE0BFC0
0FF0BF80
0FF0BF40
0BF0FF40
07F4FF00
07FEFE00
07FFFD00
01FFFC00
0035E800
0010C400
00004000
ENDCHAR
STARTCHAR P
ENCODING 80
SWIDTH 545 0
DWIDTH 15 0
BBX 15 23 0 -2
BITMAP
0156A540
7FFFFFD0
1FFFFFF0
07FFFFF4
03FFFFF8
03FFFFF4
03FFFFF0
02FFFFF0
02FFFFF0
01FF4BF0
01FF47E0
00FF47E0
00FF47E0
00BFABD0
00BFFFD0
00BFFF80
00BFA900
007F4000
007F4000
007F8000
003F8000
00278000
00010000
ENDCHAR
STARTCHAR Q
ENCODING 81
SWIDTH 520 0
DWIDTH 15 0
BBX 14 25 0 -4
BITMAP
00065000
00BFF800
07FFFF40
1FFFFFC0
1FFFFFE0
3FFFFFE0
7FFFFFE0
7FFFFFF0
7FFFBFF0
3FFD3FE0
3FFC3FE0
2FFC2FE0
1FFC2FE0
0FF82FE0
0FFC2FE0
0BFC2FD0
07FD3FD0
03FF7FC0
01FFFF80
00BFFF80
002FFFE0
000BFFF0
00000BC0
00000240
00000100
ENDCHAR
STARTCHAR R
ENCODING 82
SWIDTH 599 0
DWIDTH 17 0
BBX 16 23 0 -2
BITMAP
001AA600
6FFFFFE0
2FFFFFFC
0BFFFFFF
03FFFFFF
02FFFFFF
01FFFFFF
01FFFFFF
01FFEFFF
01FF87FF
01FF82FE
00BF83FE
00BFDBFD
00BFFFFC
007FFFF8
003FFFE0
003F8FF0
003F8BF4
002F8BF4
002FC7F4
002FC7F4
001A42F8
00010114
ENDCHAR
STARTCHAR S
ENCODING 83
SWIDTH 504 0
DWIDTH 14 0
BBX 14 23 0 -2
BITMAP
00069000
01BFFD00
07FFFF40
0FFFFFD0
1FFFFFD0
3FFFFFD0
3FFFFFD0
7FFFFFD0
7FFFFFD0
7FF9FFD0
7FF4BFD0
3FF90150
2FFFE000
0BFFFD00
02FFFF00
001BFF40
0150FF40
1FF4BF40
0FFAFF00
0BFFFD00
03FFFC00
01EAA400
00105000
ENDCHAR
STARTCHAR T
ENCODING 84
SWIDTH 622 0
DWIDTH 17 0
BBX 16 24 1 -3
BITMAP
05555500
BFFFFFE9
7FFFFFFD
3FFFFFF4
2FFFFFF0
1FFFFFF4
0FFFFFF4
0FFFFFF0
0FFFFFF0
0FFFFFE0
095FF450
000FF400
000FF400
000FF400
000FF400
000FF400
000FF000
000FF000
000BF000
000BF400
000BF400
000BF400
000FE000
00095000
ENDCHAR
STARTCHAR U
ENCODING 85
SWIDTH 637 0
DWIDTH 18 0
BBX 17 23 0 -2
BITMAP
05AA055000
6FFE0BFE40
0FFF0BFF40
0BFE0BFE00
0BFE0BFE00
07FF0BFD00
07FF0BFC00
07FF0BFC00
03FF0FF800
03FF0FF400
02FE0FF400
02FE0FF000
02FE0FF000
02FE1FF000
02FF1FE000
02FF1FE000
01FF1FE000
00FFBFD000
00FFFFD000
00BFBF8000
002E290000
0018180000
0000040000
ENDCHAR
STARTCHAR V
ENCODING 86
SWIDTH 570 0
DWIDTH 16 0
BBX 16 24 0 -3
BITMAP
55A81A95
6FF81FFD
0FF82FF8
0BFC2FF0
07F83FE0
03FC3FD0
03FC7FC0
03FC7FC0
03FDBF80
03FCBF40
03FCFF00
02FDFF00
02FEFE00
01FEFE00
01FEFD00
01FFFC00
00FFF800
00BFF800
00BFF400
007FF000
007FE000
003FE000
001A9000
00004000
ENDCHAR
STARTCHAR W
ENCODING 87
SWIDTH 777 0
DWIDTH 22 0
BBX 22 21 0 0
BITMAP
00150F429400
06FE1F83FF40
7FFE2F87FF90
1BFE2FCBFD00
03FF3FCBFC00
01FF7FDFF000
00FF7FFFE000
00BFBFFFD000
00BFFFFF8000
003FFFFF4000
002FFFFF4000
000FFFFF4000
000FFFFF0000
000BFFFF0000
0007FBFE0000
0007FBFD0000
0003F6FD0000
0002F6F80000
0001F1F40000
0000F1F40000
000065B00000
ENDCHAR
STARTCHAR X
ENCODING 88
SWIDTH 587 0
DWIDTH 16 0
BBX 17 23 0 -2
BITMAP
0054150000
6FFE1FF900
0BFE2FFE40
02FF3FE000
00FFBF8000
00BFFF4000
003FFF0000
002FFE0000
001FFD0000
001FFD0000
001FFC0000
001FFC0000
000FF80000
000BF80000
000FF80000
000FF80000
001FFC0000
001FFC0000
002FBD0000
002E7E0000
003E3F0000
007D270000
0010004000
ENDCHAR
STARTCHAR Y
ENCODING 89
SWIDTH 688 0
DWIDTH 19 0
BBX 20 22 0 -1
BITMAP
056A009000
6FFF40FF90
07FFC1FFFD
00BFE2FFD0
003FF7FF40
001FFFFE00
0007FFF800
0003FFF400
0001FFF000
0000FFF000
0000FFF000
00007FE000
00003FE000
00002FE000
00002FE000
00001FD000
00001FD000
00001FD000
00000FD000
00000FD000
00000FD000
00000A4000
ENDCHAR
STARTCHAR Z
ENCODING 90
SWIDTH 695 0
DWIDTH 19 0
BBX 18 22 1 -1
BITMAP
05AAAA4000
BFFFFFFE50
BFFFFFFFE0
7FFFFFFFC0
2FFFFFFF40
1FFFFFFF00
0FFFFFFE00
0BFFFFFC00
07FFFFF800
07FAFFF000
0742FF8000
0007FE0000
000BFC0000
000FF40000
001FE00000
001FC00000
003F800000
007FFA0000
00FFFF4000
01FFFE0000
00FBFE0000
0011580000
ENDCHAR
STARTCHAR bracketleft
ENCODING 91
SWIDTH 410 0
DWIDTH 12 0
BBX 10 25 1 -1
BITMAP
3FFF80
3FFFE0
3FFFE0
3FFFE0
3FFFE0
3FEA90
3FC000
7FC000
3FC000
7FC000
7FC000
7FC000
7FC000
7FC000
7FC000
7FC000
7FC000
7FC000
7FC000
3FC000
3FD000
2FFFF0
2FFFD0
1FDFC0
184500
ENDCHAR
STARTCHAR backslash
ENCODING 92
SWIDTH 292 0
DWIDTH 8 0
BBX 9 25 0 -3
BITMAP
A40000
B80000
7C0000
7D0000
2E0000
2E0000
2E0000
1F0000
0F4000
0BC000
07D000
03E000
02F000
01F000
00F400
00F800
00B800
007800
003C00
002D00
001E00
000F00
000B40
000B40
000400
ENDCHAR
STARTCHAR bracketright
ENCODING 93
SWIDTH 407 0
DWIDTH 11 0
BBX 10 25 0 -1
BITMAP
2FFFD0
3FFFD0
3FFFD0
3FFFD0
7FFFD0
2ABFD0
002FD0
002FD0
002FD0
002FE0
001FE0
001FE0
001FE0
001FE0
001FE0
001FE0
001FE0
001FE0
001FE0
001FE0
002FE0
BFFFE0
7FFFE0
7FFFE0
055190
ENDCHAR
STARTCHAR asciicircum
ENCODING 94
SWIDTH 523 0
DWIDTH 15 0
BBX 13 10 1 20
BITMAP
01AA8000
02FFD000
07FFE000
0BFFF400
0FFBFC00
2FE3FD00
3FC1FF00
7F40BF40
BE007F40
2C001D00
ENDCHAR
STARTCHAR underscore
ENCODING 95
SWIDTH 452 0
DWIDTH 13 0
BBX 10 5 1 -1
BITMAP
6A5560
BFFFF0
BFFFF0
BFFFF0
6AA9A0
ENDCHAR
STARTCHAR grave
ENCODING 96
SWIDTH 444 0
DWIDTH 12 0
BBX 10 7 1 21
BITMAP
074000
0BD000
0FF800
7FFE00
1BFFD0
006FE0
000050
ENDCHAR
STARTCHAR a
ENCODING 97
SWIDTH 479 0
DWIDTH 13 0
BBX 14 24 0 -3
BITMAP
16ABABD0
7FFFFF40
0FFFFE00
07FFFD00
03FFFD00
03FFFD00
03FFFD00
03FFFD00
03FFFD00
03FFFC00
03FFFC00
02FEFC00
03FAFD00
03F9FD00
07F5FD00
07F5FD00
07F6FD00
07FFFC00
07FFFC00
07FAFC00
03F5FC00
07E0F800
03E06800
01400000
ENDCHAR
STARTCHAR b
ENCODING 98
SWIDTH 610 0
DWIDTH 17 0
BBX 16 23 1 -2
BITMAP
00555640
6BFFFFF0
BFFFFFF8
3FFFFFFC
1FFFFFFD
0BFFFFFD
07FFFFFD
07FFFFFD
07FFFFFD
03FF5FFC
03FE0FF8
02FE0FF4
02FF5FE0
02FFFFD0
02FFFF40
02FFFFC0
01FE5FE0
01FE0FE0
00BE0FD0
00FF5FD0
00BFFFC0
00BBFF80
00412F00
ENDCHAR
STARTCHAR c
ENCODING 99
SWIDTH 534 0
DWIDTH 15 0
BBX 15 23 0 -2
BITMAP
001BE400
01FFFF00
0BFFFFD0
1FFFFFE0
3FFFFFF4
3FFFFFF0
7FFFFFF4
7FFFFFF4
3FFFFFF4
3FFEBFF0
2FFC3FF0
1FF82FF0
0FFC1AA0
0FF80000
0FF80000
0BFC1400
07FC3F40
07FD7F40
03FEBF40
01FFFF00
00FFFD00
005AB400
00042000
ENDCHAR
STARTCHAR d
ENCODING 100
SWIDTH 573 0
DWIDTH 16 0
BBX 15 24 1 -3
BITMAP
016A5000
BFFFFE00
BFFFFF80
7FFFFFE0
3FFFFFF4
2FFFFFF8
1FFFFFF8
0FFFFFF8
0BFFFFF8
07FFFFF4
07FE6FF4
03FD0FF0
03FD0FE0
02FD0BD0
02FD0FC0
01FD0F80
01FD1F80
01FD2F40
01FE2F40
00FEFF00
00FFFE00
00FFFE00
00D1FC00
00805000
ENDCHAR
STARTCHAR e
ENCODING 101
SWIDTH 632 0
DWIDTH 18 0
BBX 16 23 1 -2
BITMAP
015AA540
BFFFFFFE
BFFFFFFC
3FFFFFF8
2FFFFFF0
1FFFFFE0
1FFFFFE0
0FFFFFD0
0FFFFFD0
0BFEBFD0
0BFE0180
07FE0000
07FEA900
03FFFE00
03FFFE00
02FFFE00
02FE5500
01FE0000
01FEEA00
00FFFF00
00FFFE00
0093EA00
00400200
ENDCHAR
STARTCHAR f
ENCODING 102
SWIDTH 559 0
DWIDTH 16 0
BBX 15 24 0 -3
BITMAP
05555500
7FFFFFF4
1FFFFFE0
07FFFFD0
03FFFFD0
02FFFFC0
02FFFFC0
02FFFFC0
02FFFF80
01FFFF80
00FF0180
00FF5500
00FFFE00
00FFFE00
00FFFE00
00FF9600
00BF4000
00FF4000
00FF4000
00FF4000
00FF4000
009E4000
00484000
00044000
ENDCHAR
STARTCHAR g
ENCODING 103
SWIDTH 546 0
DWIDTH 15 0
BBX 14 23 1 -2
BITMAP
01554000
0BFFF800
2FFFFF00
BFFFFF80
FFFFFFD0
FFFFFFE0
FFFFFFE0
FFFFFFE0
FFFFFFE0
BFFBFFD0
BFE1FFD0
7FD0FFC0
7FD0BFC0
3FD10140
2FD3E900
1FE2FFC0
1FF2FF80
0FF17F80
0FF47F80
0BFFFF80
07FFFF40
02FFFF40
00AA9D00
ENDCHAR
STARTCHAR h
ENCODING 104
SWIDTH 730 0
DWIDTH 20 0
BBX 19 23 1 -2
BITMAP
006A46AA90
AFFE07FFF4
3FFE03FFE0
2FFE02FFD0
1FFE03FFC0
1FFE07FF80
1FFE07FF40
0FFD07FF00
0BFD07FF00
0BFD07FE00
07FD07FD00
03FEAFFC00
03FFFFF800
03FFFFF800
02FFEFF800
02FE0FF800
02FE0FF400
02FE0FF400
01FE0FF000
01FE1FF000
01FE1FE000
01800FA000
0000011000
ENDCHAR
STARTCHAR i
ENCODING 105
SWIDTH 412 0
DWIDTH 12 0
BBX 10 22 1 -1
BITMAP
5AA950
FFFFD0
7FFFC0
1FFF40
0BFF00
0BFF00
0BFF00
0BFE00
0BFD00
0BFD00
0BFD00
0BFD00
07FD00
07FD00
03FC00
03FC00
02FC00
02FC00
02F800
02F800
01B800
001800
ENDCHAR
STARTCHAR j
ENCODING 106
SWIDTH 458 0
DWIDTH 13 0
BBX 13 22 -1 -1
BITMAP
006A9000
007FFF80
002FFF40
001FFF40
001FFF00
000FFE00
000BFD00
000BFD00
000BFD00
000BFD00
000BFD00
000BFD00
0007FC00
000BFC00
1A4BF800
BF8BF800
7FC7F800
2FDBF400
2FFFF400
1FFFF000
06FFE000
00166000
ENDCHAR
STARTCHAR k
ENCODING 107
SWIDTH 636 0
DWIDTH 18 0
BBX 17 22 0 -1
BITMAP
005585A900
6FFF8BFF80
1FFF4BFD00
0BFF4FF400
07FF5FD000
02FF9FC000
01FF9F8000
00FFAF8000
00BFAF4000
00BFEE0000
00BFFD0000
00BFFC0000
00BFFD0000
007FFD0000
003FFE0000
003FFF0000
003FEF4000
002F9FC000
002F4BD000
002F47D000
001F87F000
0009426000
ENDCHAR
STARTCHAR l
ENCODING 108
SWIDTH 438 0
DWIDTH 12 0
BBX 13 23 0 -2
BITMAP
05AABD00
6FFFE000
0FFFD000
07FF8000
07FF8000
07FF8000
07FF4000
03FF4000
03FF4000
02FF4000
01FF4000
00FF4000
00FF4000
00FF0000
00FF0000
00FF0000
00BF4000
00BFFA80
00BFFF80
007FFF40
007F7F00
00612F00
00200900
ENDCHAR
STARTCHAR m
ENCODING 109
SWIDTH 770 0
DWIDTH 22 0
BBX 20 23 1 -2
BITMAP
001683AE50
1AFF83FFFD
FFFF87FFF4
7FFFCBFFD0
1FFFCFFFD0
1FFFDFFFC0
1FFFEFFF80
1FFFFFFF80
0FFFFFFF40
0FFFFFFF40
0FFFFFFF00
0FFFFFFF00
0BFFFFFE00
07FFFEFE00
07FEFAFD00
07FDFAFD00
03FDF7FC00
03FDF3F800
03FCE7F400
02F8E7F000
029896B000
0140005000
0140000000
ENDCHAR
STARTCHAR n
ENCODING 110
SWIDTH 664 0
DWIDTH 19 0
BBX 18 24 0 -3
BITMAP
56AA465550
3FFF83FFE0
1FFFC3FFC0
0FFFD2FF80
0BFFE2FF40
0BFFF2FF00
0BFFF3FE00
0BFFFBFE00
07FFFFFD00
07FFFFFD00
07FFFFFD00
03FFFFFC00
03FFFFFC00
02FFFFF800
01FEFFF800
01FDFFF400
01FDBFF400
01FD7FF000
01FD7FE000
00FD3FD000
00FD2FC000
00FD2F8000
00501A4000
0000014000
ENDCHAR
STARTCHAR o
ENCODING 111
SWIDTH 545 0
DWIDTH 15 0
BBX 14 23 1 -2
BITMAP
006A9000
07FFF800
2FFFFF40
7FFFFF80
FFFFFFE0
FFFFFFD0
FFFFFFE0
FFFFFFE0
FFFFFFE0
BFF6FFE0
BFD1FFE0
7FD1FFD0
7FD1FFD0
7FD0FFC0
3FD0FF80
2FD1FF40
2FE2FF00
1FE2FE00
0FFBFE00
0FFFFD00
06FFF800
0023E400
00015400
ENDCHAR
STARTCHAR p
ENCODING 112
SWIDTH 557 0
DWIDTH 16 0
BBX 14 22 1 -1
BITMAP
15A56400
FFFFFF40
7FFFFFD0
1FFFFFE0
0FFFFFF0
0FFFFFF0
0FFFFFE0
0BFFFFE0
0BFFFFD0
0BFD6FD0
0BFD1FD0
07FC1FC0
07FC2FC0
03FDAF80
03FFFF40
02FFFF00
02FEAD00
02FD0000
02FD0000
02FD0000
01FD0000
01EE0000
ENDCHAR
STARTCHAR q
ENCODING 113
SWIDTH 562 0
DWIDTH 16 0
BBX 16 25 0 -4
BITMAP
0006A400
00BFFF40
0BFFFFE0
1FFFFFF4
1FFFFFF8
3FFFFFFC
7FFFFFFC
7FFFFFFC
7FFF6FFC
3FFE0FFC
2FFD0FFC
2FFD0BF8
1FFC0BF8
0FFC07F8
0FFD0BF8
0BFD1BF4
07FF2FF4
03FFBFF0
01FFFFE0
007FFFF0
001FFFFD
0006FBF8
000001F0
00000050
00000040
ENDCHAR
STARTCHAR r
ENCODING 114
SWIDTH 616 0
DWIDTH 17 0
BBX 16 23 1 -2
BITMAP
016A5400
AFFFFF90
BFFFFFF8
2FFFFFFE
0FFFFFFE
0BFFFFFE
07FFFFFE
07FFFFFD
07FFFFFC
03FE0FFC
03FE0BF8
03FE0BF8
03FF5FF4
02FFFFF4
02FFFFE0
01FFFFD0
01FEBF40
01FE3F80
01FE3F80
01FE3F80
01FE3F80
01F92F80
00400680
ENDCHAR
STARTCHAR s
ENCODING 115
SWIDTH 481 0
DWIDTH 13 0
BBX 13 23 0 -2
BITMAP
001A9000
01FFF800
07FFFE00
0FFFFF80
2FFFFFC0
3FFFFF80
3FFFFF80
7FFFFF80
7FFFFF40
7FF6FF40
3FF1FF40
3FF45740
2FFF9000
1FFFF400
07FFF800
007FFC00
0002FD00
0BF1FD00
0FF5FC00
0BFFF800
03FFF000
02FFE000
00500000
ENDCHAR
STARTCHAR t
ENCODING 116
SWIDTH 683 0
DWIDTH 19 0
BBX 17 25 1 -4
BITMAP
01AAAA9400
BFFFFFFFC0
BFFFFFFF80
3FFFFFFF00
2FFFFFFD00
1FFFFFFD00
0FFFFFFD00
0FFFFFFD00
0BFFFFFD00
0BFFFEFC00
0A47FE1400
0007FE0000
0003FE0000
0003FE0000
0003FE0000
0003FE0000
0003FE0000
0002FD0000
0002FE0000
0001FD0000
0002FD0000
0001FD0000
0001FD0000
0000690000
0000010000
ENDCHAR
STARTCHAR u
ENCODING 117
SWIDTH 708 0
DWIDTH 20 0
BBX 19 21 1 0
BITMAP
01AA014000
BFFF03FA40
3FFE03FFF8
2FFF07FFE0
1FFE07FFC0
0FFF03FF80
0FFF03FF40
0BFF47FF00
0BFF47FE00
07FF47FE00
07FF07FD00
03FF07FD00
03FF0BFD00
03FF0BFC00
03FF4BFC00
02FF4BF800
01FF4FF400
00FFEFF400
00BFFFF000
007FBFE000
001A5A9000
ENDCHAR
STARTCHAR v
ENCODING 118
SWIDTH 644 0
DWIDTH 18 0
BBX 17 23 1 -2
BITMAP
15680A5500
BFF80FFF40
2FFC1FFC00
1FFC2FF800
0FFD2FF400
07FD2FF000
07FD3FE000
03FD3FD000
03FE3FD000
02FE3FC000
01FF3F8000
01FF3F8000
00FF7F4000
00BF7F4000
007FBF0000
003FFF0000
002FFE0000
002FFD0000
001FFC0000
000BFC0000
0007F80000
0003E40000
0002800000
ENDCHAR
STARTCHAR w
ENCODING 119
SWIDTH 704 0
DWIDTH 20 0
BBX 20 21 0 0
BITMAP
0000281000
6BFC3D1FE4
2FFC7E1FF9
07FD7F2FF0
03FDBF2FE0
01FDBF7FC0
01FEFFFF80
00FFFFFF40
00FFFFFF00
007FFFFE00
003FFFFD00
001FFFFD00
001FFFFD00
000FFFFC00
000BFBFC00
000BF7FC00
0007F7FC00
0003F7F800
0002F2F800
0001F2F400
000052B400
ENDCHAR
STARTCHAR x
ENCODING 120
SWIDTH 599 0
DWIDTH 17 0
BBX 17 23 0 -2
BITMAP
01A9194000
6FFF1FFE40
0BFF2FFE40
01FF3FE000
00FFBFC000
007FFF4000
003FFF0000
001FFE0000
001FFE0000
001FFD0000
001FFD0000
000FFC0000
000BF80000
0007F80000
000BF80000
000FF80000
000FFC0000
001FFC0000
001F7E0000
002F3F0000
003F3F0000
0079264000
0010004000
ENDCHAR
STARTCHAR y
ENCODING 121
SWIDTH 604 0
DWIDTH 17 0
BBX 15 23 1 -2
BITMAP
05901400
BFF42FA4
2FF83FF8
07FC7FD0
01FDFF80
01FFFF00
007FFD00
003FFC00
003FF800
002FF800
001FF800
001FF400
000FF400
000BF400
000BF400
000BF000
000BF400
000BF000
000BF000
000BF000
000BE000
000BE000
00050000
ENDCHAR
STARTCHAR z
ENCODING 122
SWIDTH 622 0
DWIDTH 17 0
BBX 16 23 1 -2
BITMAP
06AAA940
BFFFFFFD
BFFFFFFC
7FFFFFF8
2FFFFFF4
0FFFFFE0
0BFFFFE0
0BFFFFD0
07FFFFC0
07FAFF80
0343FE00
0107FC00
000BF400
000FE000
001FD000
001F8000
003F8000
003FA900
007FFF00
00BFFE00
00BFFE00
0062AD00
00000400
ENDCHAR
STARTCHAR braceleft
ENCODING 123
SWIDTH 372 0
DWIDTH 10 0
BBX 9 28 1 -4
BITMAP
000180
002FC0
00FF80
02FF80
07FF80
0FFF40
2FFF40
3FFF00
7FFF00
7FFE00
BFF000
BFD000
BFD000
FFC000
FFC000
FFC000
FFC000
BFC000
BFC000
7FD000
3FE000
2FF400
1FFD00
0FFE00
07FF00
02FF00
007E00
000400
ENDCHAR
STARTCHAR bar
ENCODING 124
SWIDTH 208 0
DWIDTH 6 0
BBX 4 26 1 -3
BITMAP
14
3C
7C
7C
7C
7C
3D
3C
38
78
78
78
7C
7C
7C
7C
7C
7C
38
38
38
38
78
78
7C
28
ENDCHAR
STARTCHAR braceright
ENCODING 125
SWIDTH 338 0
DWIDTH 9 0
BBX 8 28 0 -4
BITMAP
1000
3E80
7FE0
3FF8
3FFE
3FFF
2FFF
2FFF
2FFF
2FFF
17FF
01FF
00FF
00FF
00BF
00BE
00BE
00FE
00FE
01FD
01FD
02FC
02F8
07F4
3FE0
7F80
7F00
6900
ENDCHAR
STARTCHAR asciitilde
ENCODING 126
SWIDTH 535 0
DWIDTH 15 0
BBX 13 7 1 15
BITMAP
04006400
2E06FD00
FFAFFF40
7FFFFF80
2FFFFF40
0BF42D00
00400000
ENDCHAR
STARTCHAR exclamdown
ENCODING 161
SWIDTH 347 0
DWIDTH 10 0
BBX 9 34 0 1
BITMAP
094000
0FFF80
0FFF80
0FFF80
0FFF80
0FFF80
1FFF40
2FFF80
2BFF80
000400
000000
000000
01A800
03F800
03FC00
03FC00
03FC00
03FC00
03FC00
03FC00
07FD00
07FD00
0BFC00
0FFD00
1FFE00
1FFE00
1FFE00
1FFF00
0FFF00
1FFF00
3FFF40
3FFFC0
7FFF80
069400
ENDCHAR
STARTCHAR cent
ENCODING 162
SWIDTH 552 0
DWIDTH 15 0
BBX 14 39 1 -10
BITMAP
00050000
00090000
000D0000
000D0000
000D0000
000D0000
000D0000
000D0000
006FA000
07FFFD00
1FFFFF40
7FFFFFC0
BFFFFFD0
FFFFFFC0
FFFFFFD0
FFFFFFD0
FFFFFFD0
BFFEFFD0
7FF0BFC0
7FF07FC0
3FF06A80
3FF00000
2FF00000
2FF05000
1FF0BE00
0FF4FE00
0FFAFD00
07FFFD00
07FFF800
016FE000
00194000
00090000
00090000
00090000
00090000
00090000
00090000
000A0000
00090000
ENDCHAR
STARTCHAR sterling
ENCODING 163
SWIDTH 589 0
DWIDTH 17 0
BBX 15 23 1 -2
BITMAP
00554000
0BFFF900
2FFFFF40
7FFFFFD0
BFFFFFF0
BFFFFFF4
BFFFFFF4
BFFFFFF8
BFFFFFF4
7FFBFFF0
7FF0FFE0
3FE0BFD0
3FE07FD0
BFF90140
BFFE0000
5FF90000
0BF80000
0FFFEB80
0FFFFF40
0FFFFF00
1FFBFE00
0967BD00
00512400
ENDCHAR
STARTCHAR yen
ENCODING 165
SWIDTH 692 0
DWIDTH 19 0
BBX 21 22 -1 2
BITMAP
6ABF407A5400
1BFFC0BFFE40
01FFD0FFF800
003FF1FFE000
002FF7FF8000
0007FFFF0000
0003FFFD0000
0002FFFC0000
0001FFFD5000
07FBFFFFFD00
07FFFFFEB800
00003FF40000
00002FF40000
03FFFFFFFD00
03FFFFFFFD00
00002FF00000
00002FF00000
00001FF00000
00001FF00000
00000FF00000
00000BF00000
00000A500000
ENDCHAR
STARTCHAR brokenbar
ENCODING 166
SWIDTH 201 0
DWIDTH 6 0
BBX 3 26 1 -3
BITMAP
10
78
78
7C
7C
7C
B8
78
38
38
00
00
00
00
00
00
7C
7C
38
38
38
38
3C
3C
7C
18
ENDCHAR
STARTCHAR section
ENCODING 167
SWIDTH 477 0
DWIDTH 13 0
BBX 13 27 0 -6
BITMAP
001BA000
00FFFD00
03FFFF40
07FFFF80
0BFFFF40
0FFFFF00
0BFFFF00
0BFFFE00
0BF8FD00
07F86800
07FF9000
07FFF800
1FFFFC00
2FD6FD00
7FD0FD00
7FD0FC00
7FE2F800
3FFAF000
2FFFE000
0BFFD000
00AFE000
0557F000
1FD7E000
0FFFD000
0BFFC000
02EA4000
00400000
ENDCHAR
STARTCHAR dieresis
ENCODING 168
SWIDTH 633 0
DWIDTH 18 0
BBX 14 8 2 22
BITMAP
00000500
BE91FFD0
FFD1FFD0
FFD1FFD0
FFD1FFD0
FFD1FFE0
FFD1FFD0
5A805540
ENDCHAR
STARTCHAR copyright
ENCODING 169
SWIDTH 783 0
DWIDTH 22 0
BBX 20 24 1 -2
BITMAP
0001650000
001BFFE000
00BE5ABD00
03E0590780
0B82FFC1D0
1F0BFFF074
3D1FFFF828
7C2FFFF81C
B42FFFF80D
B02FFFF80A
F02FFFF80A
E01FE7F80B
F01FD2F40B
F01FD1500A
B40FD0000E
B40FD1000D
780BD3E01C
3C0BE7E038
2D07FFD0B4
0F03FFC1E0
07809A47D0
02F4006F40
007FABFD00
000BFFE000
ENDCHAR
STARTCHAR guillemotleft
ENCODING 171
SWIDTH 759 0
DWIDTH 21 0
BBX 20 15 1 2
BITMAP
00BFF07FFC
01FFC0BFF4
03FF41FFD0
0BFF07FF80
1FFD0BFF40
7FF81FFE00
BFF02FFC00
FFD02FF400
BFE01FFC00
3FF40BFD00
1FF807FE00
07FE01FF80
01FF80BFD0
00BFD02FF4
002FF40EFD
ENDCHAR
STARTCHAR uni00AD
ENCODING 173
SWIDTH 446 0
DWIDTH 13 0
BBX 10 4 1 8
BITMAP
6A5560
7FFFF0
BFFFF0
5BEAA0
ENDCHAR
STARTCHAR registered
ENCODING 174
SWIDTH 780 0
DWIDTH 22 0
BBX 20 24 1 -2
BITMAP
0000540000
001BFFD000
00BE406D00
03F4500740
0FEBFF81D0
2FBFFFF070
3D2FFFF838
7C1FFFF81C
B40FFFF80D
F40FFFF80E
F00FD3F40E
F00FD2F40F
A00BE7F00F
A00BFFE00E
7007FFD009
7403FBD009
3802F5F00C
2D01F9F418
1F41F9F824
0BD054A8A0
02F80006C0
00BF95BF40
001FFFF800
0001AE9000
ENDCHAR
STARTCHAR macron
ENCODING 175
SWIDTH 446 0
DWIDTH 13 0
BBX 10 4 1 8
BITMAP
6A5560
7FFFF0
BFFFF0
5BEAA0
ENDCHAR
STARTCHAR acute
ENCODING 180
SWIDTH 439 0
DWIDTH 12 0
BBX 10 7 1 21
BITMAP
000D00
007F00
01FF40
0BFFD0
2FFE50
7F9000
240000
ENDCHAR
STARTCHAR mu
ENCODING 181
SWIDTH 679 0
DWIDTH 19 0
BBX 19 22 0 -1
BITMAP
016A414000
7FFF42FF90
2FFF42FFFC
0FFF43FFF4
0FFF42FFD0
0BFF42FFD0
07FF82FF80
07FF82FF40
03FF82FF40
03FF82FF00
02FF83FF00
02FF43FE00
02FF47FE00
02FF43FE00
01FF87FD00
00FF87FC00
00BF8BFC00
00BFEFFC00
007FFFF800
003FBFF400
000A4AA000
0000010000
ENDCHAR
STARTCHAR paragraph
ENCODING 182
SWIDTH 591 0
DWIDTH 17 0
BBX 17 23 0 -2
BITMAP
00556A5000
0BFFFFFF40
2FFFFFFD00
3FFFFFF800
7FFFF5F400
3FFFF0F400
3FFFF1F400
2FFFF1F000
2FFFF1F000
1FFFF1F000
0FFFE1F000
0BFFE1F000
03FFE1E000
0054E1E000
0000E1D000
0000E1C000
0000E1C000
0000E1C000
0000E1C000
0000E1C000
0000E18000
0000E18000
0000004000
ENDCHAR
STARTCHAR periodcentered
ENCODING 183
SWIDTH 388 0
DWIDTH 11 0
BBX 9 9 1 6
BITMAP
6AFE00
7FFF00
3FFF00
3FFF00
3FFF40
2FFF00
2FFF00
2FFF00
194500
ENDCHAR
STARTCHAR cedilla
ENCODING 184
SWIDTH 270 0
DWIDTH 8 0
BBX 6 10 1 -10
BITMAP
2E00
3D00
7800
B940
BFD0
17D0
03D0
6BD0
BFD0
0140
ENDCHAR
STARTCHAR guillemotright
ENCODING 187
SWIDTH 767 0
DWIDTH 22 0
BBX 20 17 1 1
BITMAP
5510000000
FFF81FA400
7FF80BFD00
2FFD03FF40
0BFE01FF80
03FF407FE0
02FFD03FF4
00BFF02FFC
00BFE00BFE
00FFD01FFE
02FFD03FFC
07FF00BFF4
1FFD01FFE0
7FFC02FFC0
FFF407FF40
AA901FFE00
0000015400
ENDCHAR
STARTCHAR Agrave
ENCODING 192
SWIDTH 494 0
DWIDTH 14 0
BBX 14 35 -1 -6
BITMAP
0A000000
1F800000
2FF00000
BFFD0000
6FFF8000
016FC000
00014000
00000000
00054000
0BFFFFA0
02FFFF80
00FFFF40
00FFFF00
00FFFE00
00FFFE00
00FFFE00
00FFFE00
00FFFD00
00FFFD00
00FEFD00
00FDFD00
00FDBD00
00FCBD00
00FDBD00
00FFFD00
01FFFD00
01FFFC00
00FEFC00
00FCB800
00F8B800
00B4B400
00841400
00402400
00005000
00004000
ENDCHAR
STARTCHAR Aacute
ENCODING 193
SWIDTH 494 0
DWIDTH 14 0
BBX 16 35 1 -6
BITMAP
000001D0
00000BD0
00002FF0
0000BFFD
0007FFE4
000BF900
00050000
00000000
00540000
BFFFFA00
2FFFF800
0FFFF400
0FFFF000
0FFFE000
0FFFE000
0FFFE000
0FFFE000
0FFFD000
0FFFD000
0FEFD000
0FDFD000
0FDBD000
0FCBD000
0FDBD000
0FFFD000
1FFFD000
1FFFC000
0FEFC000
0FCB8000
0F8B8000
0B4B4000
08414000
04024000
00050000
00040000
ENDCHAR
STARTCHAR Acircumflex
ENCODING 194
SWIDTH 494 0
DWIDTH 14 0
BBX 13 39 0 -6
BITMAP
00004000
00FFD000
02FFF000
03FFF800
07FFFC00
0FF7FE00
1FD1FF00
2F807F80
7E001FC0
78000B40
00000000
00000000
00150000
2FFFFE80
0BFFFE00
03FFFD00
03FFFC00
03FFF800
03FFF800
03FFF800
03FFF800
03FFF400
03FFF400
03FBF400
03F7F400
03F6F400
03F2F400
03F6F400
03FFF400
07FFF400
07FFF000
03FBF000
03F2E000
03E2E000
02D2D000
02105000
01009000
00014000
00010000
ENDCHAR
STARTCHAR Atilde
ENCODING 195
SWIDTH 494 0
DWIDTH 14 0
BBX 14 35 0 -6
BITMAP
05007800
2F46FF00
7FEFFF80
2FFFFFD0
0FFFBF40
06F80900
00000000
00000000
00150000
2FFFFE80
0BFFFE00
03FFFD00
03FFFC00
03FFF800
03FFF800
03FFF800
03FFF800
03FFF400
03FFF400
03FBF400
03F7F400
03F6F400
03F2F400
03F6F400
03FFF400
07FFF400
07FFF000
03FBF000
03F2E000
03E2E000
02D2D000
02105000
01009000
00014000
00010000
ENDCHAR
STARTCHAR Adieresis
ENCODING 196
SWIDTH 494 0
DWIDTH 14 0
BBX 14 36 0 -6
BITMAP
00000140
BE90BFE0
BFE0FFE0
BFE0FFE0
BFE0FFE0
BFE0FFF0
BFE0FFE0
56905550
00000000
00150000
2FFFFE80
0BFFFE00
03FFFD00
03FFFC00
03FFF800
03FFF800
03FFF800
03FFF800
03FFF400
03FFF400
03FBF400
03F7F400
03F6F400
03F2F400
03F6F400
03FFF400
07FFF400
07FFF000
03FBF000
03F2E000
03E2E000
02D2D000
02105000
01009000
00014000
00010000
ENDCHAR
STARTCHAR Aring
ENCODING 197
SWIDTH 494 0
DWIDTH 14 0
BBX 12 35 1 -6
BITMAP
01BF40
07FFD0
0B97E0
0B41E0
0781D0
03E7C0
03FF40
002D00
005400
BFFFFA
2FFFF8
0FFFF4
0FFFF0
0FFFE0
0FFFE0
0FFFE0
0FFFE0
0FFFD0
0FFFD0
0FEFD0
0FDFD0
0FDBD0
0FCBD0
0FDBD0
0FFFD0
1FFFD0
1FFFC0
0FEFC0
0FCB80
0F8B80
0B4B40
084140
040240
000500
000400
ENDCHAR
STARTCHAR AE
ENCODING 198
SWIDTH 733 0
DWIDTH 21 0
BBX 19 27 1 -6
BITMAP
0155AA9500
BFFFFFFFF4
2FFFFFFFF0
0FFFFFFFE0
0FFFFFFFD0
0FFFFFFF80
0FFFFFFF40
0FFFFFFF40
0FFFFFFF40
0FFFFD6F00
0FFFFC0000
0FEFFD5000
0FDFFFF800
0FCBFFF800
0FCBFFF800
0F9BFEA400
0FFFF80000
1FFFFAA400
1FFFFFFC00
0FEFFFF800
0FCF8FE800
0B4B4B0800
0B474C0400
08420C1400
0402081000
0005000000
0004000000
ENDCHAR
STARTCHAR Ccedilla
ENCODING 199
SWIDTH 504 0
DWIDTH 14 0
BBX 14 34 0 -13
BITMAP
006AA000
01FFFD00
0BFFFF40
1FFFFFC0
3FFFFFD0
3FFFFFD0
7FFFFFD0
3FFFFFD0
3FFFFFD0
3FFDFFD0
2FF4BFD0
2FF47FC0
1FF41540
1FF40000
0FF00000
0FF46400
0BF4BF40
0BF8BF00
07FEFF00
03FFFD00
02FFF800
0076F000
00218000
00118000
00003C00
00007800
0000B400
0000F540
0000FFC0
00001BC0
000007C0
0000AB80
0000FF80
00000540
ENDCHAR
STARTCHAR Egrave
ENCODING 200
SWIDTH 570 0
DWIDTH 16 0
BBX 15 31 0 -2
BITMAP
0A000000
0F800000
1FF40000
BFFD0000
6FFF8000
006FC000
00014000
00000000
056AA540
3FFFFFF8
1FFFFFF4
0BFFFFF0
07FFFFE0
07FFFFD0
07FFFFD0
07FFFFC0
07FFFF80
03FE6B40
03FD0000
03FE5000
02FFFC00
02FFFC00
02FFFC00
02FEA800
01FD0000
01FEA500
01FFFD00
00FFFC00
008BEC00
008B8800
00040400
ENDCHAR
STARTCHAR Eacute
ENCODING 201
SWIDTH 570 0
DWIDTH 16 0
BBX 17 31 1 -2
BITMAP
0000007400
000001F800
00000BFC00
00002FFF40
0001FFF900
0002FE4000
0000500000
0000000000
15AA950000
FFFFFFE000
7FFFFFD000
2FFFFFC000
1FFFFF8000
1FFFFF4000
1FFFFF4000
1FFFFF0000
1FFFFE0000
0FF9AD0000
0FF4000000
0FF9400000
0BFFF00000
0BFFF00000
0BFFF00000
0BFAA00000
07F4000000
07FA940000
07FFF40000
03FFF00000
022FB00000
022E200000
0010100000
ENDCHAR
STARTCHAR Ecircumflex
ENCODING 202
SWIDTH 570 0
DWIDTH 16 0
BBX 14 35 1 -2
BITMAP
00004000
00FFE000
01FFF000
03FFF800
07FFFC00
0BF6FE00
1FE0FF40
2F807F80
3E001FC0
28000740
00000000
00000000
15AA9500
FFFFFFE0
7FFFFFD0
2FFFFFC0
1FFFFF80
1FFFFF40
1FFFFF40
1FFFFF00
1FFFFE00
0FF9AD00
0FF40000
0FF94000
0BFFF000
0BFFF000
0BFFF000
0BFAA000
07F40000
07FA9400
07FFF400
03FFF000
022FB000
022E2000
00101000
ENDCHAR
STARTCHAR Edieresis
ENCODING 203
SWIDTH 570 0
DWIDTH 16 0
BBX 14 32 1 -2
BITMAP
00000140
7EA0BFF0
BFE0BFF0
BFE0BFE0
BFE0BFF0
BFE0BFF0
BFE0BFF0
56905550
00000000
15AA9500
FFFFFFE0
7FFFFFD0
2FFFFFC0
1FFFFF80
1FFFFF40
1FFFFF40
1FFFFF00
1FFFFE00
0FF9AD00
0FF40000
0FF94000
0BFFF000
0BFFF000
0BFFF000
0BFAA000
07F40000
07FA9400
07FFF400
03FFF000
022FB000
022E2000
00101000
ENDCHAR
STARTCHAR Igrave
ENCODING 204
SWIDTH 401 0
DWIDTH 11 0
BBX 14 31 -3 -2
BITMAP
07400000
0BD00000
0FF80000
7FFE0000
1BFFD000
006FE000
00004000
00000000
00AAAA90
00FFFFC0
007FFF80
001FFF00
000FFF00
000BFF00
000BFF00
000FFF00
000FFE00
000FFE00
000BFD00
000BFD00
000BFD00
000BFD00
0007FC00
0007FC00
0003FC00
0003FC00
0003FC00
0002FC00
00027C00
00012400
00001000
ENDCHAR
STARTCHAR Iacute
ENCODING 205
SWIDTH 401 0
DWIDTH 11 0
BBX 14 31 1 -2
BITMAP
00000A00
00002F00
0001FF80
0007FFE0
002FFF90
003F9000
00140000
00000000
AAAA9000
FFFFC000
7FFF8000
1FFF0000
0FFF0000
0BFF0000
0BFF0000
0FFF0000
0FFE0000
0FFE0000
0BFD0000
0BFD0000
0BFD0000
0BFD0000
07FC0000
07FC0000
03FC0000
03FC0000
03FC0000
02FC0000
027C0000
01240000
00100000
ENDCHAR
STARTCHAR Icircumflex
ENCODING 206
SWIDTH 401 0
DWIDTH 11 0
BBX 13 35 -1 -2
BITMAP
00004000
02FFC000
03FFE000
07FFF000
0FFFF800
1FE7FC00
2FC2FE00
7F00BF00
BD002F80
74000E00
00000000
00000000
0AAAA900
0FFFFC00
07FFF800
01FFF000
00FFF000
00BFF000
00BFF000
00FFF000
00FFE000
00FFE000
00BFD000
00BFD000
00BFD000
00BFD000
007FC000
007FC000
003FC000
003FC000
003FC000
002FC000
0027C000
00124000
00010000
ENDCHAR
STARTCHAR Idieresis
ENCODING 207
SWIDTH 401 0
DWIDTH 11 0
BBX 15 32 -2 -2
BITMAP
00000140
2EA07FF4
3FF47FF4
7FF47FF4
7FF47FF4
7FF47FF4
3FF47FF4
16A01550
00000000
02AAAA40
03FFFF00
01FFFE00
007FFC00
003FFC00
002FFC00
002FFC00
003FFC00
003FF800
003FF800
002FF400
002FF400
002FF400
002FF400
001FF000
001FF000
000FF000
000FF000
000FF000
000BF000
0009F000
00049000
00004000
ENDCHAR
STARTCHAR Eth
ENCODING 208
SWIDTH 530 0
DWIDTH 15 0
BBX 15 25 1 -4
BITMAP
0015A800
1BFFFE00
2FFFFF80
1FFFFFE0
0FFFFFF0
0BFFFFF4
07FFFFF4
07FFFFF4
03FFFFF4
03FF6FF0
03FE0FF0
02FD0FE0
ABFF8FD0
ABFF8BC0
02FD0FC0
01FD1F80
01FD1F40
00FF6F40
00FFFF40
00FFFF00
00E6FD00
00C1F400
00819000
00415000
00014000
ENDCHAR
STARTCHAR Ntilde
ENCODING 209
SWIDTH 610 0
DWIDTH 17 0
BBX 15 34 1 -5
BITMAP
06006900
1F82FF40
3FEFFFC0
2FFFFFD0
0BFFBF80
02F80A00
00000000
00000000
05586500
BFF87FF8
BFFC3FF4
2FFD3FE0
2FFE3FD0
1FFF3FD0
1FFF7FD0
1FFFBFC0
1FFFFFC0
0FFFFF80
0FFFFF80
0FFFFF80
0BFFFF40
07FFFF40
07FBFF40
03F7FF40
03F6FF00
03F6FF00
03F5FF00
02F4FE00
02F4BE00
02F87A00
02487900
02040000
01044000
00040000
ENDCHAR
STARTCHAR Ograve
ENCODING 210
SWIDTH 504 0
DWIDTH 14 0
BBX 15 32 -1 -3
BITMAP
0E000000
1F800000
2FE00000
BFFD0000
6FFF8000
01AFC000
00014000
00000000
00069000
007FFE40
02FFFFD0
07FFFFF0
0FFFFFF0
1FFFFFF4
0FFFFFF4
0FFFFFF0
0FFFFFF4
0BFE7FF4
0BFC3FF4
07F82FF4
07F82FF4
07F82FF0
03FC2FE0
03FC2FD0
02FC3FD0
01FD3FC0
01FFBF80
01FFFF40
007FFF00
000D7A00
00043100
00001000
ENDCHAR
STARTCHAR Oacute
ENCODING 211
SWIDTH 504 0
DWIDTH 14 0
BBX 17 32 0 -3
BITMAP
0000007000
000002F400
00000BF800
00002FFE40
0001FFF900
0002FA4000
0001400000
0000000000
001A400000
01FFF90000
0BFFFF4000
1FFFFFC000
3FFFFFC000
7FFFFFD000
3FFFFFD000
3FFFFFC000
3FFFFFD000
2FF9FFD000
2FF0FFD000
1FE0BFD000
1FE0BFD000
1FE0BFC000
0FF0BF8000
0FF0BF4000
0BF0FF4000
07F4FF0000
07FEFE0000
07FFFD0000
01FFFC0000
0035E80000
0010C40000
0000400000
ENDCHAR
STARTCHAR Ocircumflex
ENCODING 212
SWIDTH 504 0
DWIDTH 14 0
BBX 14 36 0 -3
BITMAP
00004000
01FFD000
02FFF000
03FFF400
0BFFFC00
0FF7FD00
1FD1FF00
3F407F40
7E002FC0
78000B40
00000000
00000000
001A4000
01FFF900
0BFFFF40
1FFFFFC0
3FFFFFC0
7FFFFFD0
3FFFFFD0
3FFFFFC0
3FFFFFD0
2FF9FFD0
2FF0FFD0
1FE0BFD0
1FE0BFD0
1FE0BFC0
0FF0BF80
0FF0BF40
0BF0FF40
07F4FF00
07FEFE00
07FFFD00
01FFFC00
0035E800
0010C400
00004000
ENDCHAR
STARTCHAR Otilde
ENCODING 213
SWIDTH 504 0
DWIDTH 14 0
BBX 14 32 0 -3
BITMAP
0801A400
7E07FD00
FFFFFF40
7FFFFF80
2FFEFF00
0BE41800
00000000
00000000
001A4000
01FFF900
0BFFFF40
1FFFFFC0
3FFFFFC0
7FFFFFD0
3FFFFFD0
3FFFFFC0
3FFFFFD0
2FF9FFD0
2FF0FFD0
1FE0BFD0
1FE0BFD0
1FE0BFC0
0FF0BF80
0FF0BF40
0BF0FF40
07F4FF00
07FEFE00
07FFFD00
01FFFC00
0035E800
0010C400
00004000
ENDCHAR
STARTCHAR Odieresis
ENCODING 214
SWIDTH 504 0
DWIDTH 14 0
BBX 14 33 0 -3
BITMAP
00000140
BE90BFE0
BFE0FFE0
FFE0FFE0
FFE0FFE0
FFE0FFE0
BFE0FFE0
5A905550
00000000
001A4000
01FFF900
0BFFFF40
1FFFFFC0
3FFFFFC0
7FFFFFD0
3FFFFFD0
3FFFFFC0
3FFFFFD0
2FF9FFD0
2FF0FFD0
1FE0BFD0
1FE0BFD0
1FE0BFC0
0FF0BF80
0FF0BF40
0BF0FF40
07F4FF00
07FEFE00
07FFFD00
01FFFC00
0035E800
0010C400
00004000
ENDCHAR
STARTCHAR multiply
ENCODING 215
SWIDTH 359 0
DWIDTH 10 0
BBX 10 11 0 5
BITMAP
060600
0F4F80
7FEFD0
7FFFE0
1FFF40
07FF00
1FFF80
7FFFE0
3FEFE0
1F4B80
050200
ENDCHAR
STARTCHAR Oslash
ENCODING 216
SWIDTH 658 0
DWIDTH 18 0
BBX 20 24 -1 -3
BITMAP
0001A40000
002FFF9000
00BFFFF405
02FFFFFD18
03FFFFFD60
07FFFFFF80
07FFFFFF00
03FFFFFD00
03FFFFFE00
03FF5FFE00
02FF0BFE00
02FE1FFE00
01FE7FFE00
01FED7FD00
01FF47FC00
00FE0BF800
00FF0FF800
00BF4FF400
02FFEFF000
0A7FFFE000
282FFFD000
60075E8000
00020C4000
0000040000
ENDCHAR
STARTCHAR Ugrave
ENCODING 217
SWIDTH 637 0
DWIDTH 18 0
BBX 17 31 0 -2
BITMAP
0280000000
03E0000000
07FD000000
2FFF400000
1BFFE00000
001BF00000
0000500000
0000000000
05AA055000
6FFE0BFE40
0FFF0BFF40
0BFE0BFE00
0BFE0BFE00
07FF0BFD00
07FF0BFC00
07FF0BFC00
03FF0FF800
03FF0FF400
02FE0FF400
02FE0FF000
02FE0FF000
02FE1FF000
02FF1FE000
02FF1FE000
01FF1FE000
00FFBFD000
00FFFFD000
00BFBF8000
002E290000
0018180000
0000040000
ENDCHAR
STARTCHAR Uacute
ENCODING 218
SWIDTH 637 0
DWIDTH 18 0
BBX 19 31 0 -2
BITMAP
0000000740
0000001F80
000000BFC0
000002FFF4
00001FFF90
00002FE400
0000050000
0000000000
05AA055000
6FFE0BFE40
0FFF0BFF40
0BFE0BFE00
0BFE0BFE00
07FF0BFD00
07FF0BFC00
07FF0BFC00
03FF0FF800
03FF0FF400
02FE0FF400
02FE0FF000
02FE0FF000
02FE1FF000
02FF1FE000
02FF1FE000
01FF1FE000
00FFBFD000
00FFFFD000
00BFBF8000
002E290000
0018180000
0000040000
ENDCHAR
STARTCHAR Ucircumflex
ENCODING 219
SWIDTH 637 0
DWIDTH 18 0
BBX 17 35 0 -2
BITMAP
0000040000
000FFE0000
001FFF0000
003FFF8000
007FFFC000
00BF6FE000
01FE0FF400
02F807F800
03E001FC00
0280007400
0000000000
0000000000
05AA055000
6FFE0BFE40
0FFF0BFF40
0BFE0BFE00
0BFE0BFE00
07FF0BFD00
07FF0BFC00
07FF0BFC00
03FF0FF800
03FF0FF400
02FE0FF400
02FE0FF000
02FE0FF000
02FE1FF000
02FF1FE000
02FF1FE000
01FF1FE000
00FFBFD000
00FFFFD000
00BFBF8000
002E290000
0018180000
0000040000
ENDCHAR
STARTCHAR Udieresis
ENCODING 220
SWIDTH 637 0
DWIDTH 18 0
BBX 17 32 0 -2
BITMAP
0000001400
07EA0BFF00
0BFE0BFF00
0BFE0BFE00
0BFE0BFF00
0BFE0BFF00
0BFE0BFF00
0569055500
0000000000
05AA055000
6FFE0BFE40
0FFF0BFF40
0BFE0BFE00
0BFE0BFE00
07FF0BFD00
07FF0BFC00
07FF0BFC00
03FF0FF800
03FF0FF400
02FE0FF400
02FE0FF000
02FE0FF000
02FE1FF000
02FF1FE000
02FF1FE000
01FF1FE000
00FFBFD000
00FFFFD000
00BFBF8000
002E290000
0018180000
0000040000
ENDCHAR
STARTCHAR Yacute
ENCODING 221
SWIDTH 688 0
DWIDTH 19 0
BBX 20 30 0 -1
BITMAP
00000001C0
0000000BD0
0000002FF0
000000BFFD
000007FFE4
00000BE900
0000050000
0000000000
056A009000
6FFF40FF90
07FFC1FFFD
00BFE2FFD0
003FF7FF40
001FFFFE00
0007FFF800
0003FFF400
0001FFF000
0000FFF000
0000FFF000
00007FE000
00003FE000
00002FE000
00002FE000
00001FD000
00001FD000
00001FD000
00000FD000
00000FD000
00000FD000
00000A4000
ENDCHAR
STARTCHAR Thorn
ENCODING 222
SWIDTH 521 0
DWIDTH 15 0
BBX 14 30 0 -4
BITMAP
05564000
BFFF0000
7FFE0000
7FFE0000
3FFD0000
3FFE6500
3FFFFF80
2FFFFFD0
2FFFFFE0
2FFFFFE0
1FFFFFE0
1FFFFFE0
1FFFFFE0
1FFFFFE0
0FFD1FD0
0FFD0FD0
0BFD0FC0
0BFD0FC0
07FEAF80
03FFFF40
03FFFF00
02FE5900
02FD0000
02FE0000
02FE0000
02FE0000
01DE0000
00890000
00C80000
00440000
ENDCHAR
STARTCHAR germandbls
ENCODING 223
SWIDTH 546 0
DWIDTH 15 0
BBX 14 23 1 -2
BITMAP
00555400
1FFFFF40
3FFFFFC0
BFFFFFD0
BFFFFFD0
FFFFFFD0
BFFFFFD0
FFFFFFD0
FFFFFFD0
FFF6FF80
BFE0FF40
BFE0FF00
7FE5FE00
7FE7FD00
3FE7F800
3FE7FD00
2FE2FE00
2FE0FE00
2FE0FD00
1FE5FD00
0FEBFC00
1EEBF800
0442F000
ENDCHAR
STARTCHAR agrave
ENCODING 224
SWIDTH 479 0
DWIDTH 13 0
BBX 15 32 -1 -3
BITMAP
0A000000
0FD00000
1FF40000
7FFD0000
6BFF8000
006FD000
00014000
00000000
05AAEAF4
1FFFFFD0
03FFFF80
01FFFF40
00FFFF40
00FFFF40
00FFFF40
00FFFF40
00FFFF40
00FFFF00
00FFFF00
00BFBF00
00FEBF40
00FE7F40
01FD7F40
01FD7F40
01FDBF40
01FFFF00
01FFFF00
01FEBF00
00FD7F00
01F83E00
00F81A00
00500000
ENDCHAR
STARTCHAR aacute
ENCODING 225
SWIDTH 479 0
DWIDTH 13 0
BBX 17 32 0 -3
BITMAP
0000007400
000001F800
000007FD00
00002FFF40
0000FFF940
0001FE4000
0000900000
0000000000
16ABABD000
7FFFFF4000
0FFFFE0000
07FFFD0000
03FFFD0000
03FFFD0000
03FFFD0000
03FFFD0000
03FFFD0000
03FFFC0000
03FFFC0000
02FEFC0000
03FAFD0000
03F9FD0000
07F5FD0000
07F5FD0000
07F6FD0000
07FFFC0000
07FFFC0000
07FAFC0000
03F5FC0000
07E0F80000
03E0680000
0140000000
ENDCHAR
STARTCHAR acircumflex
ENCODING 226
SWIDTH 479 0
DWIDTH 13 0
BBX 14 36 0 -3
BITMAP
00004000
00BFE000
01FFF400
02FFF800
03FFFD00
0BFAFE00
0FE0BF40
1F803FC0
3F001FD0
2C000740
00000000
00000000
16ABABD0
7FFFFF40
0FFFFE00
07FFFD00
03FFFD00
03FFFD00
03FFFD00
03FFFD00
03FFFD00
03FFFC00
03FFFC00
02FEFC00
03FAFD00
03F9FD00
07F5FD00
07F5FD00
07F6FD00
07FFFC00
07FFFC00
07FAFC00
03F5FC00
07E0F800
03E06800
01400000
ENDCHAR
STARTCHAR atilde
ENCODING 227
SWIDTH 479 0
DWIDTH 13 0
BBX 14 32 0 -3
BITMAP
05007800
2F46FE00
BFEFFF80
3FFFFFC0
1FFFBF40
07F41900
00000000
00000000
16ABABD0
7FFFFF40
0FFFFE00
07FFFD00
03FFFD00
03FFFD00
03FFFD00
03FFFD00
03FFFD00
03FFFC00
03FFFC00
02FEFC00
03FAFD00
03F9FD00
07F5FD00
07F5FD00
07F6FD00
07FFFC00
07FFFC00
07FAFC00
03F5FC00
07E0F800
03E06800
01400000
ENDCHAR
STARTCHAR adieresis
ENCODING 228
SWIDTH 479 0
DWIDTH 13 0
BBX 14 33 0 -3
BITMAP
00000140
7EA0BFF0
7FF0BFF0
7FF0BFF0
BFF0BFF0
7FF0BFF0
7FF0BFF0
16901550
00000000
16ABABD0
7FFFFF40
0FFFFE00
07FFFD00
03FFFD00
03FFFD00
03FFFD00
03FFFD00
03FFFD00
03FFFC00
03FFFC00
02FEFC00
03FAFD00
03F9FD00
07F5FD00
07F5FD00
07F6FD00
07FFFC00
07FFFC00
07FAFC00
03F5FC00
07E0F800
03E06800
01400000
ENDCHAR
STARTCHAR aring
ENCODING 229
SWIDTH 479 0
DWIDTH 13 0
BBX 14 34 0 -3
BITMAP
002FD000
00FFF400
01F5FC00
01E03C00
00E03800
00F9B400
00BFE000
000B8000
00000000
00000000
16ABABD0
7FFFFF40
0FFFFE00
07FFFD00
03FFFD00
03FFFD00
03FFFD00
03FFFD00
03FFFD00
03FFFC00
03FFFC00
02FEFC00
03FAFD00
03F9FD00
07F5FD00
07F5FD00
07F6FD00
07FFFC00
07FFFC00
07FAFC00
03F5FC00
07E0F800
03E06800
01400000
ENDCHAR
STARTCHAR ae
ENCODING 230
SWIDTH 755 0
DWIDTH 21 0
BBX 20 24 0 -3
BITMAP
16ABAFE940
7FFFFFFFFE
0FFFFFFFFE
03FFFFFFFC
03FFFFFFF8
03FFFFFFF4
02FFFFFFF0
02FFFFFFF0
03FFFFFFF0
03FFFFAFE0
02FFFF4050
02FEFF4000
03FDFFAA00
03F9FFFF00
03F9FFFF00
03F5FFFF00
03F9FF9500
03FFFF4000
07FFFFBA40
03FAFFFF40
03F4FFFF40
03F0F8EA40
03E0640100
0140000000
ENDCHAR
STARTCHAR ccedilla
ENCODING 231
SWIDTH 534 0
DWIDTH 15 0
BBX 15 33 0 -12
BITMAP
001BE400
01FFFF00
0BFFFFD0
1FFFFFE0
3FFFFFF4
3FFFFFF0
7FFFFFF4
7FFFFFF4
3FFFFFF4
3FFEBFF0
2FFC3FF0
1FF82FF0
0FFC1AA0
0FF80000
0FF80000
0BFC1400
07FC3F40
07FD7F40
03FEBF40
01FFFF00
00FFFD00
005AB400
00042000
0000B400
0000F000
0001E000
0002E500
0002FF40
00005F40
00000F00
0001AF00
0002FF00
00000500
ENDCHAR
STARTCHAR egrave
ENCODING 232
SWIDTH 632 0
DWIDTH 18 0
BBX 16 31 1 -2
BITMAP
0D000000
1F800000
2FE00000
BFFC0000
6FFF4000
01AF8000
00014000
00000000
015AA540
BFFFFFFE
BFFFFFFC
3FFFFFF8
2FFFFFF0
1FFFFFE0
1FFFFFE0
0FFFFFD0
0FFFFFD0
0BFEBFD0
0BFE0180
07FE0000
07FEA900
03FFFE00
03FFFE00
02FFFE00
02FE5500
01FE0000
01FEEA00
00FFFF00
00FFFE00
0093EA00
00400200
ENDCHAR
STARTCHAR eacute
ENCODING 233
SWIDTH 632 0
DWIDTH 18 0
BBX 17 31 1 -2
BITMAP
0000002C00
000000BD00
000002FE00
00001FFF80
00007FFE40
0000BE9000
0000500000
0000000000
015AA54000
BFFFFFFE00
BFFFFFFC00
3FFFFFF800
2FFFFFF000
1FFFFFE000
1FFFFFE000
0FFFFFD000
0FFFFFD000
0BFEBFD000
0BFE018000
07FE000000
07FEA90000
03FFFE0000
03FFFE0000
02FFFE0000
02FE550000
01FE000000
01FEEA0000
00FFFF0000
00FFFE0000
0093EA0000
0040020000
ENDCHAR
STARTCHAR ecircumflex
ENCODING 234
SWIDTH 632 0
DWIDTH 18 0
BBX 16 35 1 -2
BITMAP
00001000
007FF400
00BFF800
01FFFD00
02FFFE00
03FDFF40
0BF47F80
0FD01FD0
1F400BE0
1E0002C0
00000000
00000000
015AA540
BFFFFFFE
BFFFFFFC
3FFFFFF8
2FFFFFF0
1FFFFFE0
1FFFFFE0
0FFFFFD0
0FFFFFD0
0BFEBFD0
0BFE0180
07FE0000
07FEA900
03FFFE00
03FFFE00
02FFFE00
02FE5500
01FE0000
01FEEA00
00FFFF00
00FFFE00
0093EA00
00400200
ENDCHAR
STARTCHAR edieresis
ENCODING 235
SWIDTH 632 0
DWIDTH 18 0
BBX 16 32 1 -2
BITMAP
00000040
2FA42FF8
3FF43FF8
3FF43FF8
3FF43FF8
3FF43FF8
3FF43FF8
16A41550
00000000
015AA540
BFFFFFFE
BFFFFFFC
3FFFFFF8
2FFFFFF0
1FFFFFE0
1FFFFFE0
0FFFFFD0
0FFFFFD0
0BFEBFD0
0BFE0180
07FE0000
07FEA900
03FFFE00
03FFFE00
02FFFE00
02FE5500
01FE0000
01FEEA00
00FFFF00
00FFFE00
0093EA00
00400200
ENDCHAR
STARTCHAR igrave
ENCODING 236
SWIDTH 411 0
DWIDTH 12 0
BBX 14 30 -3 -1
BITMAP
03400000
07E00000
0BF80000
6FFE0000
1BFFD000
006BE000
00005000
00000000
005AA950
00FFFFD0
007FFFC0
001FFF40
000BFF00
000BFF00
000BFF00
000BFE00
000BFD00
000BFD00
000BFD00
000BFD00
0007FD00
0007FD00
0003FC00
0003FC00
0002FC00
0002FC00
0002F800
0002F800
0001B800
00001800
ENDCHAR
STARTCHAR iacute
ENCODING 237
SWIDTH 411 0
DWIDTH 12 0
BBX 14 30 1 -1
BITMAP
00000B00
00002F40
0000BF80
0007FFE0
002FFF90
003FA400
00140000
00000000
5AA95000
FFFFD000
7FFFC000
1FFF4000
0BFF0000
0BFF0000
0BFF0000
0BFE0000
0BFD0000
0BFD0000
0BFD0000
0BFD0000
07FD0000
07FD0000
03FC0000
03FC0000
02FC0000
02FC0000
02F80000
02F80000
01B80000
00180000
ENDCHAR
STARTCHAR icircumflex
ENCODING 238
SWIDTH 411 0
DWIDTH 12 0
BBX 13 34 0 -1
BITMAP
00004000
02FFC000
03FFD000
0BFFF000
0FFFF400
1FE7FC00
3F82FE00
7F00BF00
BC003F40
B4000E00
00000000
00000000
16AA5400
3FFFF400
1FFFF000
07FFD000
02FFC000
02FFC000
02FFC000
02FF8000
02FF4000
02FF4000
02FF4000
02FF4000
01FF4000
01FF4000
00FF0000
00FF0000
00BF0000
00BF0000
00BE0000
00BE0000
006E0000
00060000
ENDCHAR
STARTCHAR idieresis
ENCODING 239
SWIDTH 411 0
DWIDTH 12 0
BBX 14 31 -1 -1
BITMAP
00000500
BE91BFD0
FFD1FFE0
FFD1FFD0
FFD0FFE0
FFD0FFE0
FFD0FFE0
5A805540
00000000
05AA9500
0FFFFD00
07FFFC00
01FFF400
00BFF000
00BFF000
00BFF000
00BFE000
00BFD000
00BFD000
00BFD000
00BFD000
007FD000
007FD000
003FC000
003FC000
002FC000
002FC000
002F8000
002F8000
001B8000
00018000
ENDCHAR
STARTCHAR eth
ENCODING 240
SWIDTH 530 0
DWIDTH 15 0
BBX 15 25 1 -4
BITMAP
0015A800
1BFFFE00
2FFFFF80
1FFFFFE0
0FFFFFF0
0BFFFFF4
07FFFFF4
07FFFFF4
03FFFFF4
03FF6FF0
03FE0FF0
02FD0FE0
ABFF8FD0
ABFF8BC0
02FD0FC0
01FD1F80
01FD1F40
00FF6F40
00FFFF40
00FFFF00
00E6FD00
00C1F400
00819000
00415000
00014000
ENDCHAR
STARTCHAR ntilde
ENCODING 241
SWIDTH 664 0
DWIDTH 19 0
BBX 18 32 0 -3
BITMAP
0060079000
02F82FF400
07FEFFFC00
02FFFFFD00
00FFFBF800
002F809000
0000000000
0000000000
56AA465550
3FFF83FFE0
1FFFC3FFC0
0FFFD2FF80
0BFFE2FF40
0BFFF2FF00
0BFFF3FE00
0BFFFBFE00
07FFFFFD00
07FFFFFD00
07FFFFFD00
03FFFFFC00
03FFFFFC00
02FFFFF800
01FEFFF800
01FDFFF400
01FDBFF400
01FD7FF000
01FD7FE000
00FD3FD000
00FD2FC000
00FD2F8000
00501A4000
0000014000
ENDCHAR
STARTCHAR ograve
ENCODING 242
SWIDTH 545 0
DWIDTH 15 0
BBX 16 31 -1 -2
BITMAP
07400000
0BD00000
0FF80000
7FFE0000
1BFFD000
006FD000
00014000
00000000
0006A900
007FFF80
02FFFFF4
07FFFFF8
0FFFFFFE
0FFFFFFD
0FFFFFFE
0FFFFFFE
0FFFFFFE
0BFF6FFE
0BFD1FFE
07FD1FFD
07FD1FFD
07FD0FFC
03FD0FF8
02FD1FF4
02FE2FF0
01FE2FE0
00FFBFE0
00FFFFD0
006FFF80
00023E40
00001540
ENDCHAR
STARTCHAR oacute
ENCODING 243
SWIDTH 545 0
DWIDTH 15 0
BBX 16 31 1 -2
BITMAP
000000A0
000003F0
00001FF4
00007FFE
0002FFF9
0003F900
00014000
00000000
006A9000
07FFF800
2FFFFF40
7FFFFF80
FFFFFFE0
FFFFFFD0
FFFFFFE0
FFFFFFE0
FFFFFFE0
BFF6FFE0
BFD1FFE0
7FD1FFD0
7FD1FFD0
7FD0FFC0
3FD0FF80
2FD1FF40
2FE2FF00
1FE2FE00
0FFBFE00
0FFFFD00
06FFF800
0023E400
00015400
ENDCHAR
STARTCHAR ocircumflex
ENCODING 244
SWIDTH 545 0
DWIDTH 15 0
BBX 14 35 1 -2
BITMAP
00004000
02FFC000
03FFE000
07FFF000
0FFFF800
1FE7FC00
2FC2FE00
7F00BF00
BD002F40
B4000E00
00000000
00000000
006A9000
07FFF800
2FFFFF40
7FFFFF80
FFFFFFE0
FFFFFFD0
FFFFFFE0
FFFFFFE0
FFFFFFE0
BFF6FFE0
BFD1FFE0
7FD1FFD0
7FD1FFD0
7FD0FFC0
3FD0FF80
2FD1FF40
2FE2FF00
1FE2FE00
0FFBFE00
0FFFFD00
06FFF800
0023E400
00015400
ENDCHAR
STARTCHAR otilde
ENCODING 245
SWIDTH 545 0
DWIDTH 15 0
BBX 15 31 0 -2
BITMAP
05007800
2F42FF00
7FEFFF80
2FFFFFD0
0FFFBF80
02F80900
00000000
00000000
001AA400
01FFFE00
0BFFFFD0
1FFFFFE0
3FFFFFF8
3FFFFFF4
3FFFFFF8
3FFFFFF8
3FFFFFF8
2FFDBFF8
2FF47FF8
1FF47FF4
1FF47FF4
1FF43FF0
0FF43FE0
0BF47FD0
0BF8BFC0
07F8BF80
03FEFF80
03FFFF40
01BFFE00
0008F900
00005500
ENDCHAR
STARTCHAR odieresis
ENCODING 246
SWIDTH 545 0
DWIDTH 15 0
BBX 15 32 0 -2
BITMAP
00000140
2EA07FF4
7FF47FF4
7FF47FF4
7FF47FF4
7FF47FF4
7FF07FF4
16A01550
00000000
001AA400
01FFFE00
0BFFFFD0
1FFFFFE0
3FFFFFF8
3FFFFFF4
3FFFFFF8
3FFFFFF8
3FFFFFF8
2FFDBFF8
2FF47FF8
1FF47FF4
1FF47FF4
1FF43FF0
0FF43FE0
0BF47FD0
0BF8BFC0
07F8BF80
03FEFF80
03FFFF40
01BFFE00
0008F900
00005500
ENDCHAR
STARTCHAR oslash
ENCODING 248
SWIDTH 676 0
DWIDTH 19 0
BBX 18 23 0 -2
BITMAP
001AA40000
01FFFE0020
07FFFFC090
0FFFFFE240
2FFFFFFD00
2FFFFFF800
2FFFFFF400
2FFFFFF400
1FFFFFF400
1FFDBFF400
1FF87FF400
0FF5FFF400
0FF77FF000
0BFD3FF000
0BF43FE000
07F47FD000
03F87FC000
07F8BF8000
1AFEFF8000
61FFFF4000
80AFFE0000
0008F90000
0000550000
ENDCHAR
STARTCHAR ugrave
ENCODING 249
SWIDTH 708 0
DWIDTH 20 0
BBX 19 29 1 0
BITMAP
0280000000
03E0000000
0BFD000000
2FFF400000
1BFFE00000
001BF00000
0000500000
0000000000
01AA014000
BFFF03FA40
3FFE03FFF8
2FFF07FFE0
1FFE07FFC0
0FFF03FF80
0FFF03FF40
0BFF47FF00
0BFF47FE00
07FF47FE00
07FF07FD00
03FF07FD00
03FF0BFD00
03FF0BFC00
03FF4BFC00
02FF4BF800
01FF4FF400
00FFEFF400
00BFFFF000
007FBFE000
001A5A9000
ENDCHAR
STARTCHAR uacute
ENCODING 250
SWIDTH 708 0
DWIDTH 20 0
BBX 19 29 1 0
BITMAP
0000000740
0000001F80
000000BFC0
000002FFF4
00001FFF90
00002FE400
0000050000
0000000000
01AA014000
BFFF03FA40
3FFE03FFF8
2FFF07FFE0
1FFE07FFC0
0FFF03FF80
0FFF03FF40
0BFF47FF00
0BFF47FE00
07FF47FE00
07FF07FD00
03FF07FD00
03FF0BFD00
03FF0BFC00
03FF4BFC00
02FF4BF800
01FF4FF400
00FFEFF400
00BFFFF000
007FBFE000
001A5A9000
ENDCHAR
STARTCHAR ucircumflex
ENCODING 251
SWIDTH 708 0
DWIDTH 20 0
BBX 19 33 1 0
BITMAP
0000040000
000FFE0000
001FFF0000
003FFF8000
007FFFC000
00BF6FE000
01FD0FF000
02F807F800
03E001FC00
0280007400
0000000000
0000000000
01AA014000
BFFF03FA40
3FFE03FFF8
2FFF07FFE0
1FFE07FFC0
0FFF03FF80
0FFF03FF40
0BFF47FF00
0BFF47FE00
07FF47FE00
07FF07FD00
03FF07FD00
03FF0BFD00
03FF0BFC00
03FF4BFC00
02FF4BF800
01FF4FF400
00FFEFF400
00BFFFF000
007FBFE000
001A5A9000
ENDCHAR
STARTCHAR udieresis
ENCODING 252
SWIDTH 708 0
DWIDTH 20 0
BBX 19 30 1 0
BITMAP
0000001400
07EA0BFF00
0BFE0BFF00
0BFE0BFE00
0BFE0BFF00
0BFE0BFF00
0BFE0BFF00
0569055500
0000000000
01AA014000
BFFF03FA40
3FFE03FFF8
2FFF07FFE0
1FFE07FFC0
0FFF03FF80
0FFF03FF40
0BFF47FF00
0BFF47FE00
07FF47FE00
07FF07FD00
03FF07FD00
03FF0BFD00
03FF0BFC00
03FF4BFC00
02FF4BF800
01FF4FF400
00FFEFF400
00BFFFF000
007FBFE000
001A5A9000
ENDCHAR
STARTCHAR yacute
ENCODING 253
SWIDTH 604 0
DWIDTH 17 0
BBX 17 31 1 -2
BITMAP
0000002800
000000BC00
000007FE00
00001FFF80
0000BFFE40
0000FE4000
0000500000
0000000000
0590140000
BFF42FA400
2FF83FF800
07FC7FD000
01FDFF8000
01FFFF0000
007FFD0000
003FFC0000
003FF80000
002FF80000
001FF80000
001FF40000
000FF40000
000BF40000
000BF40000
000BF00000
000BF40000
000BF00000
000BF00000
000BF00000
000BE00000
000BE00000
0005000000
ENDCHAR
STARTCHAR thorn
ENCODING 254
SWIDTH 498 0
DWIDTH 14 0
BBX 13 30 0 -4
BITMAP
05550000
BFFE0000
7FFD0000
7FFD0000
3FFC0000
3FFE9400
3FFFFF00
2FFFFF80
2FFFFFC0
2FFFFFC0
1FFFFFC0
1FFFFFC0
1FFFFFC0
1FFFFFC0
0FFC3FC0
0FFC2F80
0BFC2F80
0BFC2F40
07FEBF40
03FFFF00
03FFFE00
02FE6800
02FD0000
02FE0000
02FE0000
02FE0000
01DE0000
00890000
00C80000
00440000
ENDCHAR
STARTCHAR ydieresis
ENCODING 255
SWIDTH 604 0
DWIDTH 17 0
BBX 16 32 1 -2
BITMAP
00000050
1BA81FFC
1FFC2FFD
1FFC2FFC
1FFC2FFD
1FFC2FFD
1FFC2FFD
05A40554
00000000
05901400
BFF42FA4
2FF83FF8
07FC7FD0
01FDFF80
01FFFF00
007FFD00
003FFC00
003FF800
002FF800
001FF800
001FF400
000FF400
000BF400
000BF400
000BF000
000BF400
000BF000
000BF000
000BF000
000BE000
000BE000
00050000
ENDCHAR
STARTCHAR Amacron
ENCODING 256
SWIDTH 494 0
DWIDTH 14 0
BBX 12 32 1 -6
BITMAP
1A5564
3FFFF8
3FFFF4
1BEAB4
000000
005400
BFFFFA
2FFFF8
0FFFF4
0FFFF0
0FFFE0
0FFFE0
0FFFE0
0FFFE0
0FFFD0
0FFFD0
0FEFD0
0FDFD0
0FDBD0
0FCBD0
0FDBD0
0FFFD0
1FFFD0
1FFFC0
0FEFC0
0FCB80
0F8B80
0B4B40
084140
040240
000500
000400
ENDCHAR
STARTCHAR amacron
ENCODING 257
SWIDTH 479 0
DWIDTH 13 0
BBX 14 30 0 -3
BITMAP
06A55500
0BFFFE00
0BFFFE00
05BAAA00
00000000
00000000
16ABABD0
7FFFFF40
0FFFFE00
07FFFD00
03FFFD00
03FFFD00
03FFFD00
03FFFD00
03FFFD00
03FFFC00
03FFFC00
02FEFC00
03FAFD00
03F9FD00
07F5FD00
07F5FD00
07F6FD00
07FFFC00
07FFFC00
07FAFC00
03F5FC00
07E0F800
03E06800
01400000
ENDCHAR
STARTCHAR Abreve
ENCODING 258
SWIDTH 494 0
DWIDTH 14 0
BBX 13 37 1 -6
BITMAP
1FD01400
0FD03F80
0BE07F40
07FAFF00
07FFFE00
01BFFC00
0025E800
00008800
00000000
00000000
00540000
BFFFFA00
2FFFF800
0FFFF400
0FFFF000
0FFFE000
0FFFE000
0FFFE000
0FFFE000
0FFFD000
0FFFD000
0FEFD000
0FDFD000
0FDBD000
0FCBD000
0FDBD000
0FFFD000
1FFFD000
1FFFC000
0FEFC000
0FCB8000
0F8B8000
0B4B4000
08414000
04024000
00050000
00040000
ENDCHAR
STARTCHAR abreve
ENCODING 259
SWIDTH 479 0
DWIDTH 13 0
BBX 14 34 0 -3
BITMAP
07F40500
03F40FD0
02F81FD0
01FEBFC0
01FFFF80
006FFF00
00097A00
00002200
00000000
00000000
16ABABD0
7FFFFF40
0FFFFE00
07FFFD00
03FFFD00
03FFFD00
03FFFD00
03FFFD00
03FFFD00
03FFFC00
03FFFC00
02FEFC00
03FAFD00
03F9FD00
07F5FD00
07F5FD00
07F6FD00
07FFFC00
07FFFC00
07FAFC00
03F5FC00
07E0F800
03E06800
01400000
ENDCHAR
STARTCHAR Aogonek
ENCODING 260
SWIDTH 494 0
DWIDTH 14 0
BBX 13 33 1 -12
BITMAP
00540000
BFFFFA00
2FFFF800
0FFFF400
0FFFF000
0FFFE000
0FFFE000
0FFFE000
0FFFE000
0FFFD000
0FFFD000
0FEFD000
0FDFD000
0FDBD000
0FCBD000
0FDBD000
0FFFD000
1FFFD000
1FFFC000
0FEFC000
0FCB8000
0F8B8000
0B4F8000
085F4000
042F4000
003F0000
003F0000
003F4000
003F8000
002FFE40
001FFF40
000BFF00
0001AA00
ENDCHAR
STARTCHAR aogonek
ENCODING 261
SWIDTH 479 0
DWIDTH 13 0
BBX 15 31 0 -10
BITMAP
16ABABD0
7FFFFF40
0FFFFE00
07FFFD00
03FFFD00
03FFFD00
03FFFD00
03FFFD00
03FFFD00
03FFFC00
03FFFC00
02FEFC00
03FAFD00
03F9FD00
07F5FD00
07F5FD00
07F6FD00
07FFFC00
07FFFC00
07FAFC00
03F5FC00
07E0F800
03E0F800
0141F800
0001F400
0001F400
0001F800
0001FE94
0000FFF8
00007FF4
00001BF4
ENDCHAR
STARTCHAR Cacute
ENCODING 262
SWIDTH 504 0
DWIDTH 14 0
BBX 15 32 0 -3
BITMAP
000002C0
00000BD0
00002FE0
0001FFF8
0007FFE4
000FE900
00050000
00000000
006AA000
01FFFD00
0BFFFF40
1FFFFFC0
3FFFFFD0
3FFFFFD0
7FFFFFD0
3FFFFFD0
3FFFFFD0
3FFDFFD0
2FF4BFD0
2FF47FC0
1FF41540
1FF40000
0FF00000
0FF46400
0BF4BF40
0BF8BF00
07FEFF00
03FFFD00
02FFF800
0076F000
00218000
00118000
ENDCHAR
STARTCHAR cacute
ENCODING 263
SWIDTH 534 0
DWIDTH 15 0
BBX 16 31 0 -2
BITMAP
000001D0
000007E0
00001FF4
0000BFFD
0003FFE4
0007F900
00024000
00000000
001BE400
01FFFF00
0BFFFFD0
1FFFFFE0
3FFFFFF4
3FFFFFF0
7FFFFFF4
7FFFFFF4
3FFFFFF4
3FFEBFF0
2FFC3FF0
1FF82FF0
0FFC1AA0
0FF80000
0FF80000
0BFC1400
07FC3F40
07FD7F40
03FEBF40
01FFFF00
00FFFD00
005AB400
00042000
ENDCHAR
STARTCHAR Ccircumflex
ENCODING 264
SWIDTH 504 0
DWIDTH 14 0
BBX 14 36 0 -3
BITMAP
00001000
007FF400
00BFF800
01FFFD00
02FFFE00
03FDFF40
0BF47F80
0FD01FD0
1F400BE0
1E0002C0
00000000
00000000
006AA000
01FFFD00
0BFFFF40
1FFFFFC0
3FFFFFD0
3FFFFFD0
7FFFFFD0
3FFFFFD0
3FFFFFD0
3FFDFFD0
2FF4BFD0
2FF47FC0
1FF41540
1FF40000
0FF00000
0FF46400
0BF4BF40
0BF8BF00
07FEFF00
03FFFD00
02FFF800
0076F000
00218000
00118000
ENDCHAR
STARTCHAR ccircumflex
ENCODING 265
SWIDTH 534 0
DWIDTH 15 0
BBX 15 35 0 -2
BITMAP
00000400
001FFC00
003FFE00
007FFF00
00BFFF80
01FE7FC0
02FC1FE0
03F40BF4
0BD002F8
074000E0
00000000
00000000
001BE400
01FFFF00
0BFFFFD0
1FFFFFE0
3FFFFFF4
3FFFFFF0
7FFFFFF4
7FFFFFF4
3FFFFFF4
3FFEBFF0
2FFC3FF0
1FF82FF0
0FFC1AA0
0FF80000
0FF80000
0BFC1400
07FC3F40
07FD7F40
03FEBF40
01FFFF00
00FFFD00
005AB400
00042000
ENDCHAR
STARTCHAR Cdotaccent
ENCODING 266
SWIDTH 504 0
DWIDTH 14 0
BBX 14 34 0 -3
BITMAP
01ABF800
01FFFC00
00FFFC00
00FFFC00
00FFFD00
00BFFC00
00BFFC00
00BFFC00
00651400
00000000
006AA000
01FFFD00
0BFFFF40
1FFFFFC0
3FFFFFD0
3FFFFFD0
7FFFFFD0
3FFFFFD0
3FFFFFD0
3FFDFFD0
2FF4BFD0
2FF47FC0
1FF41540
1FF40000
0FF00000
0FF46400
0BF4BF40
0BF8BF00
07FEFF00
03FFFD00
02FFF800
0076F000
00218000
00118000
ENDCHAR
STARTCHAR cdotaccent
ENCODING 267
SWIDTH 534 0
DWIDTH 15 0
BBX 15 33 0 -2
BITMAP
006BFD00
00BFFE00
00BFFE00
007FFE00
007FFE00
007FFE00
003FFE00
003FFE00
00250400
00000000
001BE400
01FFFF00
0BFFFFD0
1FFFFFE0
3FFFFFF4
3FFFFFF0
7FFFFFF4
7FFFFFF4
3FFFFFF4
3FFEBFF0
2FFC3FF0
1FF82FF0
0FFC1AA0
0FF80000
0FF80000
0BFC1400
07FC3F40
07FD7F40
03FEBF40
01FFFF00
00FFFD00
005AB400
00042000
ENDCHAR
STARTCHAR Ccaron
ENCODING 268
SWIDTH 504 0
DWIDTH 14 0
BBX 14 36 0 -3
BITMAP
05000600
2F400F80
2FD02FD0
1FE07FC0
0FF4FF40
07FAFF00
03FFFD00
02FFFC00
00FFF400
00BFF000
00000000
00000000
006AA000
01FFFD00
0BFFFF40
1FFFFFC0
3FFFFFD0
3FFFFFD0
7FFFFFD0
3FFFFFD0
3FFFFFD0
3FFDFFD0
2FF4BFD0
2FF47FC0
1FF41540
1FF40000
0FF00000
0FF46400
0BF4BF40
0BF8BF00
07FEFF00
03FFFD00
02FFF800
0076F000
00218000
00118000
ENDCHAR
STARTCHAR ccaron
ENCODING 269
SWIDTH 534 0
DWIDTH 15 0
BBX 15 35 0 -2
BITMAP
01400180
0BD003E0
0BF40BF4
07F81FF0
03FD3FD0
01FEBFC0
00FFFF40
00BFFF00
003FFD00
002FFC00
00000000
00000000
001BE400
01FFFF00
0BFFFFD0
1FFFFFE0
3FFFFFF4
3FFFFFF0
7FFFFFF4
7FFFFFF4
3FFFFFF4
3FFEBFF0
2FFC3FF0
1FF82FF0
0FFC1AA0
0FF80000
0FF80000
0BFC1400
07FC3F40
07FD7F40
03FEBF40
01FFFF00
00FFFD00
005AB400
00042000
ENDCHAR
STARTCHAR Dcaron
ENCODING 270
SWIDTH 522 0
DWIDTH 15 0
BBX 14 37 1 -4
BITMAP
02000200
1F800BC0
1FD01FE0
0FF03FD0
0BF4BF80
03FDFF40
02FFFE00
01FFFD00
00BFF800
007FF400
00001000
00000000
00155000
6BFFF800
BFFFFE00
7FFFFF80
3FFFFFC0
2FFFFFC0
2FFFFFC0
1FFFFFC0
1FFFFFC0
1FFDBF80
0FF83F80
0FF43F40
0FF43F00
0BF43F00
0BF43E00
0BF47E00
07F47D00
07F9FD00
03FFFD00
07FFFC00
039BF400
030B9000
020A4000
01090000
00040000
ENDCHAR
STARTCHAR dcaron
ENCODING 271
SWIDTH 522 0
DWIDTH 15 0
BBX 14 37 1 -4
BITMAP
02000200
1F800BC0
1FD01FE0
0FF03FD0
0BF4BF80
03FDFF40
02FFFE00
01FFFD00
00BFF800
007FF400
00001000
00000000
00155000
6BFFF800
BFFFFE00
7FFFFF80
3FFFFFC0
2FFFFFC0
2FFFFFC0
1FFFFFC0
1FFFFFC0
1FFDBF80
0FF83F80
0FF43F40
0FF43F00
0BF43F00
0BF43E00
0BF47E00
07F47D00
07F9FD00
03FFFD00
07FFFC00
039BF400
030B9000
020A4000
01090000
00040000
ENDCHAR
STARTCHAR Eth.dup2
ENCODING 272
SWIDTH 530 0
DWIDTH 15 0
BBX 15 25 1 -4
BITMAP
0015A800
1BFFFE00
2FFFFF80
1FFFFFE0
0FFFFFF0
0BFFFFF4
07FFFFF4
07FFFFF4
03FFFFF4
03FF6FF0
03FE0FF0
02FD0FE0
ABFF8FD0
ABFF8BC0
02FD0FC0
01FD1F80
01FD1F40
00FF6F40
00FFFF40
00FFFF00
00E6FD00
00C1F400
00819000
00415000
00014000
ENDCHAR
STARTCHAR Emacron
ENCODING 274
SWIDTH 570 0
DWIDTH 16 0
BBX 14 28 1 -2
BITMAP
06955500
0BFFFE00
0FFFFE00
05FAAD00
00000000
15AA9500
FFFFFFE0
7FFFFFD0
2FFFFFC0
1FFFFF80
1FFFFF40
1FFFFF40
1FFFFF00
1FFFFE00
0FF9AD00
0FF40000
0FF94000
0BFFF000
0BFFF000
0BFFF000
0BFAA000
07F40000
07FA9400
07FFF400
03FFF000
022FB000
022E2000
00101000
ENDCHAR
STARTCHAR emacron
ENCODING 275
SWIDTH 632 0
DWIDTH 18 0
BBX 16 28 1 -2
BITMAP
02A55640
03FFFF40
03FFFF40
02BEAB00
00000000
015AA540
BFFFFFFE
BFFFFFFC
3FFFFFF8
2FFFFFF0
1FFFFFE0
1FFFFFE0
0FFFFFD0
0FFFFFD0
0BFEBFD0
0BFE0180
07FE0000
07FEA900
03FFFE00
03FFFE00
02FFFE00
02FE5500
01FE0000
01FEEA00
00FFFF00
00FFFE00
0093EA00
00400200
ENDCHAR
STARTCHAR Ebreve
ENCODING 276
SWIDTH 570 0
DWIDTH 16 0
BBX 14 33 1 -2
BITMAP
03F40500
03F40FE0
02F81FD0
01FEBFC0
01FFFF80
005FFF00
00097A00
00002200
00000000
00000000
15AA9500
FFFFFFE0
7FFFFFD0
2FFFFFC0
1FFFFF80
1FFFFF40
1FFFFF40
1FFFFF00
1FFFFE00
0FF9AD00
0FF40000
0FF94000
0BFFF000
0BFFF000
0BFFF000
0BFAA000
07F40000
07FA9400
07FFF400
03FFF000
022FB000
022E2000
00101000
ENDCHAR
STARTCHAR ebreve
ENCODING 277
SWIDTH 632 0
DWIDTH 18 0
BBX 16 33 1 -2
BITMAP
00BE0040
00BE02FC
007F03F8
003FEBF4
002FFFF0
0017FFD0
00018FC0
00000880
00000000
00000000
015AA540
BFFFFFFE
BFFFFFFC
3FFFFFF8
2FFFFFF0
1FFFFFE0
1FFFFFE0
0FFFFFD0
0FFFFFD0
0BFEBFD0
0BFE0180
07FE0000
07FEA900
03FFFE00
03FFFE00
02FFFE00
02FE5500
01FE0000
01FEEA00
00FFFF00
00FFFE00
0093EA00
00400200
ENDCHAR
STARTCHAR Edotaccent
ENCODING 278
SWIDTH 570 0
DWIDTH 16 0
BBX 14 33 1 -2
BITMAP
01AFE400
03FFF400
02FFF400
02FFF400
01FFF800
01FFF800
01FFF400
01FFF400
01941000
00000000
15AA9500
FFFFFFE0
7FFFFFD0
2FFFFFC0
1FFFFF80
1FFFFF40
1FFFFF40
1FFFFF00
1FFFFE00
0FF9AD00
0FF40000
0FF94000
0BFFF000
0BFFF000
0BFFF000
0BFAA000
07F40000
07FA9400
07FFF400
03FFF000
022FB000
022E2000
00101000
ENDCHAR
STARTCHAR edotaccent
ENCODING 279
SWIDTH 632 0
DWIDTH 18 0
BBX 16 33 1 -2
BITMAP
01ABF800
01FFFC00
00FFFC00
00FFFC00
00BFFD00
00BFFD00
00BFFC00
00BFFC00
00651400
00000000
015AA540
BFFFFFFE
BFFFFFFC
3FFFFFF8
2FFFFFF0
1FFFFFE0
1FFFFFE0
0FFFFFD0
0FFFFFD0
0BFEBFD0
0BFE0180
07FE0000
07FEA900
03FFFE00
03FFFE00
02FFFE00
02FE5500
01FE0000
01FEEA00
00FFFF00
00FFFE00
0093EA00
00400200
ENDCHAR
STARTCHAR Eogonek
ENCODING 280
SWIDTH 513 0
DWIDTH 14 0
BBX 14 30 1 -9
BITMAP
15AA9500
FFFFFFE0
7FFFFFD0
2FFFFFC0
1FFFFF80
1FFFFF40
1FFFFF40
1FFFFF00
1FFFFE00
0FF9AD00
0FF40000
0FF94000
0BFFF000
0BFFF000
0BFFF000
0BFAA000
07F40000
07FA9400
07FFF400
03FFF000
03EFF000
030BF000
000BD000
000F8000
000F8000
000FD000
000FF940
000BFFD0
0003FFC0
0000BFC0
ENDCHAR
STARTCHAR eogonek
ENCODING 281
SWIDTH 632 0
DWIDTH 18 0
BBX 16 31 1 -10
BITMAP
015AA540
BFFFFFFE
BFFFFFFC
3FFFFFF8
2FFFFFF0
1FFFFFE0
1FFFFFE0
0FFFFFD0
0FFFFFD0
0BFEBFD0
0BFE0180
07FE0000
07FEA900
03FFFE00
03FFFE00
02FFFE00
02FE5500
01FE0000
01FEEA00
00FFFF00
00FFFE00
0093FC00
0041F800
0001F400
0002F400
0002F800
0001FE54
0000FFF8
00007FF8
00001BF8
00000040
ENDCHAR
STARTCHAR Ecaron
ENCODING 282
SWIDTH 570 0
DWIDTH 16 0
BBX 14 35 1 -2
BITMAP
02000200
1F800BC0
1FD01FE0
0FF03FD0
0BF4BF80
03FDFF40
02FFFE00
01FFFD00
00BFF800
007FF400
00001000
00000000
15AA9500
FFFFFFE0
7FFFFFD0
2FFFFFC0
1FFFFF80
1FFFFF40
1FFFFF40
1FFFFF00
1FFFFE00
0FF9AD00
0FF40000
0FF94000
0BFFF000
0BFFF000
0BFFF000
0BFAA000
07F40000
07FA9400
07FFF400
03FFF000
022FB000
022E2000
00101000
ENDCHAR
STARTCHAR ecaron
ENCODING 283
SWIDTH 632 0
DWIDTH 18 0
BBX 16 35 1 -2
BITMAP
00900050
02F001F4
03F803FC
02FD0BF8
01FE1FF0
00BFBFE0
007FFFC0
003FFF80
001FFF00
000FFE00
00000400
00000000
015AA540
BFFFFFFE
BFFFFFFC
3FFFFFF8
2FFFFFF0
1FFFFFE0
1FFFFFE0
0FFFFFD0
0FFFFFD0
0BFEBFD0
0BFE0180
07FE0000
07FEA900
03FFFE00
03FFFE00
02FFFE00
02FE5500
01FE0000
01FEEA00
00FFFF00
00FFFE00
0093EA00
00400200
ENDCHAR
STARTCHAR Gcircumflex
ENCODING 284
SWIDTH 499 0
DWIDTH 14 0
BBX 14 36 0 -3
BITMAP
00004000
00FFE000
02FFF000
03FFF800
07FFFC00
0FF7FE00
1FD0FF00
2F807F80
7E001FC0
68000740
00000000
00000000
00154000
02FFF400
1FFFFE00
2FFFFF80
3FFFFFC0
3FFFFFD0
3FFFFFD0
3FFFFFD0
2FFFFFC0
2FF6FFC0
2FE0FF80
1FE0FF80
1FE06A80
0FE15500
0FE2FF80
0FF2FF80
0BF2BF80
0BF47F80
07F9FF80
03FFFF40
02FFFF00
00ABFD00
00156000
00200000
ENDCHAR
STARTCHAR gcircumflex
ENCODING 285
SWIDTH 546 0
DWIDTH 15 0
BBX 14 35 1 -2
BITMAP
00004000
02FFC000
03FFE000
07FFF000
0FFFF800
1FE7FC00
2FC2FE00
7F40BF40
BD002F80
74000E00
00000000
00000000
01554000
0BFFF800
2FFFFF00
BFFFFF80
FFFFFFD0
FFFFFFE0
FFFFFFE0
FFFFFFE0
FFFFFFE0
BFFBFFD0
BFE1FFD0
7FD0FFC0
7FD0BFC0
3FD10140
2FD3E900
1FE2FFC0
1FF2FF80
0FF17F80
0FF47F80
0BFFFF80
07FFFF40
02FFFF40
00AA9D00
ENDCHAR
STARTCHAR Gbreve
ENCODING 286
SWIDTH 499 0
DWIDTH 14 0
BBX 13 34 1 -3
BITMAP
2F405000
2F80BE00
1FC0FD00
1FFAFD00
0FFFF800
05FFF400
0053E000
00022000
00000000
00000000
00550000
0BFFD000
7FFFF800
BFFFFE00
FFFFFF00
FFFFFF40
FFFFFF40
FFFFFF40
BFFFFF00
BFDBFF00
BF83FE00
7F83FE00
7F81AA00
3F855400
3F8BFE00
3FCBFE00
2FCAFE00
2FD1FE00
1FE7FE00
0FFFFD00
0BFFFC00
02AFF400
00558000
00800000
ENDCHAR
STARTCHAR gbreve
ENCODING 287
SWIDTH 546 0
DWIDTH 15 0
BBX 14 33 1 -2
BITMAP
1FC01400
0FD03F40
0BE07F00
0BFAFF00
07FFFD00
01BFFC00
0022E800
00014400
00000000
00000000
01554000
0BFFF800
2FFFFF00
BFFFFF80
FFFFFFD0
FFFFFFE0
FFFFFFE0
FFFFFFE0
FFFFFFE0
BFFBFFD0
BFE1FFD0
7FD0FFC0
7FD0BFC0
3FD10140
2FD3E900
1FE2FFC0
1FF2FF80
0FF17F80
0FF47F80
0BFFFF80
07FFFF40
02FFFF40
00AA9D00
ENDCHAR
STARTCHAR Gdotaccent
ENCODING 288
SWIDTH 499 0
DWIDTH 14 0
BBX 13 34 1 -3
BITMAP
06BF9000
0FFFD000
0BFFD000
0BFFD000
0BFFE000
07FFD000
07FFD000
07FFD000
06504000
00000000
00550000
0BFFD000
7FFFF800
BFFFFE00
FFFFFF00
FFFFFF40
FFFFFF40
FFFFFF40
BFFFFF00
BFDBFF00
BF83FE00
7F83FE00
7F81AA00
3F855400
3F8BFE00
3FCBFE00
2FCAFE00
2FD1FE00
1FE7FE00
0FFFFD00
0BFFFC00
02AFF400
00558000
00800000
ENDCHAR
STARTCHAR gdotaccent
ENCODING 289
SWIDTH 546 0
DWIDTH 15 0
BBX 14 33 1 -2
BITMAP
06AFE000
07FFF000
03FFF000
03FFF000
03FFF000
03FFF000
02FFF000
02FFF000
01945000
00000000
01554000
0BFFF800
2FFFFF00
BFFFFF80
FFFFFFD0
FFFFFFE0
FFFFFFE0
FFFFFFE0
FFFFFFE0
BFFBFFD0
BFE1FFD0
7FD0FFC0
7FD0BFC0
3FD10140
2FD3E900
1FE2FFC0
1FF2FF80
0FF17F80
0FF47F80
0BFFFF80
07FFFF40
02FFFF40
00AA9D00
ENDCHAR
STARTCHAR Gcommaaccent
ENCODING 290
SWIDTH 499 0
DWIDTH 14 0
BBX 13 38 1 -17
BITMAP
00550000
0BFFD000
7FFFF800
BFFFFE00
FFFFFF00
FFFFFF40
FFFFFF40
FFFFFF40
BFFFFF00
BFDBFF00
BF83FE00
7F83FE00
7F81AA00
3F855400
3F8BFE00
3FCBFE00
2FCAFE00
2FD1FE00
1FE7FE00
0FFFFD00
0BFFFC00
02AFF400
00558000
00800000
00000000
00655000
01FFF000
01FFF400
01FFF400
01FFF400
01FFF400
01FFF400
0056F400
0002F000
0003F000
0003E000
0007E000
00029000
ENDCHAR
STARTCHAR Hcircumflex
ENCODING 292
SWIDTH 726 0
DWIDTH 20 0
BBX 20 39 0 -6
BITMAP
0000010000
0003FF8000
000BFFC000
000FFFE000
001FFFF000
003FDFF800
007F43FC00
00BE01FE00
01F8007F00
01E0002D00
0000000000
0000000000
0005919540
5ABFC2FFFD
1FFF41FFF8
0BFF40FFF4
0BFF41FFF0
07FF41FFD0
07FF42FFC0
03FF42FFC0
02FF42FF80
02FF42FF40
01FF42FF00
01FF56FF00
00FFFFFE00
00FFFFFE00
00FFFFFE00
00BF83FD00
00BF47FD00
00BF87FC00
007F87FC00
007F87F800
007F8BF800
00A503F800
0000015400
0000000000
0000040000
0000040000
0000040000
ENDCHAR
STARTCHAR hcircumflex
ENCODING 293
SWIDTH 730 0
DWIDTH 20 0
BBX 19 35 1 -2
BITMAP
0000040000
000FFE0000
001FFF0000
003FFF8000
007FFFD000
00BF6FE000
01FE0FF400
02F807F800
03E001FC00
02C0007400
0000000000
0000000000
006A46AA90
AFFE07FFF4
3FFE03FFE0
2FFE02FFD0
1FFE03FFC0
1FFE07FF80
1FFE07FF40
0FFD07FF00
0BFD07FF00
0BFD07FE00
07FD07FD00
03FEAFFC00
03FFFFF800
03FFFFF800
02FFEFF800
02FE0FF800
02FE0FF400
02FE0FF400
01FE0FF000
01FE1FF000
01FE1FE000
01800FA000
0000011000
ENDCHAR
STARTCHAR hbar
ENCODING 295
SWIDTH 704 0
DWIDTH 20 0
BBX 18 23 1 -2
BITMAP
006A0EAA40
AFFE0FFFE0
3FFD0FFFC0
2FFD0FFF80
1FFFFFFF40
1FFFFFFF00
1FFFFFFE00
0FFFFFFD00
0BFFFFFD00
0BFC0BFC00
07FC0BF800
03FEAFF400
03FFFFF000
03FFFFF000
02FFAFF000
02FE0FF400
02FE0FF400
02FE0FF400
01FE0FF000
01FE1FF000
01FE1FE000
01800FA000
0000011000
ENDCHAR
STARTCHAR Itilde
ENCODING 296
SWIDTH 401 0
DWIDTH 11 0
BBX 14 31 -2 -2
BITMAP
05007800
2F82FF00
7FEFFF80
2FFFFFD0
0FFFBF80
02F80900
00000000
00000000
02AAAA40
03FFFF00
01FFFE00
007FFC00
003FFC00
002FFC00
002FFC00
003FFC00
003FF800
003FF800
002FF400
002FF400
002FF400
002FF400
001FF000
001FF000
000FF000
000FF000
000FF000
000BF000
0009F000
00049000
00004000
ENDCHAR
STARTCHAR itilde
ENCODING 297
SWIDTH 411 0
DWIDTH 12 0
BBX 14 30 -2 -1
BITMAP
06007900
1F82FF40
7FEFFFC0
2FFFFFD0
0BFFBF80
02F80A00
00000000
00000000
016AA540
03FFFF40
01FFFF00
007FFD00
002FFC00
002FFC00
002FFC00
002FF800
002FF400
002FF400
002FF400
002FF400
001FF400
001FF400
000FF000
000FF000
000BF000
000BF000
000BE000
000BE000
0006E000
00006000
ENDCHAR
STARTCHAR Imacron
ENCODING 298
SWIDTH 401 0
DWIDTH 11 0
BBX 11 29 0 -2
BITMAP
2A5560
7FFFF0
7FFFF0
1BEAB0
000000
000000
2AAAA4
3FFFF0
1FFFE0
07FFC0
03FFC0
02FFC0
02FFC0
03FFC0
03FF80
03FF80
02FF40
02FF40
02FF40
02FF40
01FF00
01FF00
00FF00
00FF00
00FF00
00BF00
009F00
004900
000400
ENDCHAR
STARTCHAR imacron
ENCODING 299
SWIDTH 411 0
DWIDTH 12 0
BBX 11 28 0 -1
BITMAP
2A5560
7FFFF4
7FFFF0
2BEAB0
000000
000000
16AA54
3FFFF4
1FFFF0
07FFD0
02FFC0
02FFC0
02FFC0
02FF80
02FF40
02FF40
02FF40
02FF40
01FF40
01FF40
00FF00
00FF00
00BF00
00BF00
00BE00
00BE00
006E00
000600
ENDCHAR
STARTCHAR Ibreve
ENCODING 300
SWIDTH 401 0
DWIDTH 11 0
BBX 11 33 1 -2
BITMAP
FD0140
FD03F8
BE07F4
7FAFF0
7FFFE0
17FFC0
025E80
000880
000000
000000
AAAA90
FFFFC0
7FFF80
1FFF00
0FFF00
0BFF00
0BFF00
0FFF00
0FFE00
0FFE00
0BFD00
0BFD00
0BFD00
0BFD00
07FC00
07FC00
03FC00
03FC00
03FC00
02FC00
027C00
012400
001000
ENDCHAR
STARTCHAR ibreve
ENCODING 301
SWIDTH 411 0
DWIDTH 12 0
BBX 12 32 0 -1
BITMAP
7F4050
3F40FD
2F81FC
2FEBFC
1FFFF4
06FFF0
008BA0
000510
000000
000000
16AA54
3FFFF4
1FFFF0
07FFD0
02FFC0
02FFC0
02FFC0
02FF80
02FF40
02FF40
02FF40
02FF40
01FF40
01FF40
00FF00
00FF00
00BF00
00BF00
00BE00
00BE00
006E00
000600
ENDCHAR
STARTCHAR Iogonek
ENCODING 302
SWIDTH 401 0
DWIDTH 11 0
BBX 10 32 1 -11
BITMAP
AAAA90
FFFFC0
7FFF80
1FFF00
0FFF00
0BFF00
0BFF00
0FFF00
0FFE00
0FFE00
0BFD00
0BFD00
0BFD00
0BFD00
07FC00
07FC00
03FC00
03FC00
03FC00
02FC00
02FC00
03F800
03E000
07D000
0BC000
0BC000
0BC000
0BE000
0BFE90
07FFD0
02FFD0
006B90
ENDCHAR
STARTCHAR iogonek
ENCODING 303
SWIDTH 412 0
DWIDTH 12 0
BBX 10 32 1 -11
BITMAP
5AA950
FFFFD0
7FFFC0
1FFF40
0BFF00
0BFF00
0BFF00
0BFE00
0BFD00
0BFD00
0BFD00
0BFD00
07FD00
07FD00
03FC00
03FC00
02FC00
02FC00
02F800
02F800
02F800
03F800
07E000
07D000
0BD000
0BD000
0BE000
0BF900
07FFE0
02FFD0
00BFD0
000540
ENDCHAR
STARTCHAR Idotaccent
ENCODING 304
SWIDTH 401 0
DWIDTH 11 0
BBX 10 33 1 -2
BITMAP
6AFE00
7FFF00
7FFF00
3FFF00
3FFF00
3FFF00
3FFF00
2FFF00
194500
000000
AAAA90
FFFFC0
7FFF80
1FFF00
0FFF00
0BFF00
0BFF00
0FFF00
0FFE00
0FFE00
0BFD00
0BFD00
0BFD00
0BFD00
07FC00
07FC00
03FC00
03FC00
03FC00
02FC00
027C00
012400
001000
ENDCHAR
STARTCHAR dotlessi
ENCODING 305
SWIDTH 411 0
DWIDTH 12 0
BBX 10 22 1 -1
BITMAP
5AA950
FFFFD0
7FFFC0
1FFF40
0BFF00
0BFF00
0BFF00
0BFE00
0BFD00
0BFD00
0BFD00
0BFD00
07FD00
07FD00
03FC00
03FC00
02FC00
02FC00
02F800
02F800
01B800
001800
ENDCHAR
STARTCHAR IJ
ENCODING 306
SWIDTH 908 0
DWIDTH 25 0
BBX 24 23 1 -2
BITMAP
AAAA90005550
FFFFD000FFFD
7FFFC000BFF8
1FFF80007FF4
0FFF40003FF4
0BFF80002FE0
0BFF40003FE0
0FFF40003FD0
0FFF40007FD0
0FFF00007FD0
0BFE00007FC0
0BFE00007FC0
0BFF00003F80
07FE00007F80
07FE01A87F40
07FD03F87F40
03FE02F87F40
03FE02FCBF00
02FD02FFFF00
02FD01FFFD00
01AD007DF900
015900049400
000400000000
ENDCHAR
STARTCHAR ij
ENCODING 307
SWIDTH 901 0
DWIDTH 25 0
BBX 24 22 1 -1
BITMAP
5AA95002A940
FFFFE003FFF9
7FFFD001FFF8
1FFF8000FFF8
0BFF4000FFF4
07FF8000BFF0
0BFF4000BFE0
0BFF0000BFE0
0BFF0000BFE0
0BFE0000BFE0
0BFE0000BFE0
0BFE00007FE0
07FE00003FD0
07FE00007FC0
03FE01A87FC0
02FD03FC7FC0
02FD02FC3FC0
02FD01FD7F80
02FD01FFFF80
02FD00BFFF00
01EC002FFF00
001900016600
ENDCHAR
STARTCHAR Jcircumflex
ENCODING 308
SWIDTH 455 0
DWIDTH 13 0
BBX 15 34 -1 -1
BITMAP
00000400
000FFE00
002FFF00
003FFF80
007FFFC0
00FF7FE0
01FD0FF0
02F807F8
07E001FC
078000B4
00000000
00000000
00155400
002FFF80
001FFF00
000BFF00
000BFE00
0007FD00
000BFC00
000BF800
000BF800
000FF800
000FF400
000FF400
000BF400
000BF000
1B4FF000
BF4BF000
7F4FE000
7F5FE000
7FFFD000
2FFFC000
0BAE8000
00584000
ENDCHAR
STARTCHAR jcircumflex
ENCODING 309
SWIDTH 458 0
DWIDTH 13 0
BBX 15 34 -1 -1
BITMAP
00000400
000FFE00
001FFF00
003FFF80
007FFFC0
00BF7FE0
01FD0FF0
02F807F8
03E001FC
02800074
00000000
00000000
006A9000
007FFF80
002FFF40
001FFF40
001FFF00
000FFE00
000BFD00
000BFD00
000BFD00
000BFD00
000BFD00
000BFC00
0007FC00
000BFC00
1A4BF800
BF8BF800
7FC7F800
2FDBF400
2FFFF400
1FFFF000
07FFE000
00165000
ENDCHAR
STARTCHAR Kcommaaccent
ENCODING 310
SWIDTH 580 0
DWIDTH 16 0
BBX 16 37 0 -16
BITMAP
16950540
7FFE1FFD
0FFE1FF4
0BFE2FD0
07FE3F40
02FF3E00
02FFBE00
01FFFD00
00FFFD00
00FFFD00
00FFFD00
00FFFD00
00BFFD00
00BFFD00
007FFE00
007FFE00
007FBF00
007E3F00
003E2F40
003E1F80
003F1F80
00221980
00000000
00000000
00065500
001FFF40
001FFF40
001FFF40
001FFF40
001FFF40
001FFF40
00056F40
00002F00
00003F00
00003E00
00007E00
00002900
ENDCHAR
STARTCHAR kcommaaccent
ENCODING 311
SWIDTH 636 0
DWIDTH 18 0
BBX 17 37 0 -16
BITMAP
005585A900
6FFF8BFF80
1FFF4BFD00
0BFF4FF400
07FF5FD000
02FF9FC000
01FF9F8000
00FFAF8000
00BFAF4000
00BFEE0000
00BFFD0000
00BFFC0000
00BFFD0000
007FFD0000
003FFE0000
003FFF0000
003FEF4000
002F9FC000
002F4BD000
002F47D000
001F87F000
0009426000
0000000000
0000000000
0005954000
0007FFC000
0007FFC000
0007FFD000
000BFFD000
000BFFD000
000BFFC000
00015FC000
00000FC000
00000F8000
00001F8000
00001F8000
00001A4000
ENDCHAR
STARTCHAR kgreenlandic
ENCODING 312
SWIDTH 636 0
DWIDTH 18 0
BBX 17 22 0 -1
BITMAP
005585A900
6FFF8BFF80
1FFF4BFD00
0BFF4FF400
07FF5FD000
02FF9FC000
01FF9F8000
00FFAF8000
00BFAF4000
00BFEE0000
00BFFD0000
00BFFC0000
00BFFD0000
007FFD0000
003FFE0000
003FFF0000
003FEF4000
002F9FC000
002F4BD000
002F47D000
001F87F000
0009426000
ENDCHAR
STARTCHAR Lacute
ENCODING 313
SWIDTH 416 0
DWIDTH 12 0
BBX 15 31 0 -2
BITMAP
000002C0
00000BD0
00002FE0
0001FFF8
0007FFE4
000FE900
00050000
00000000
6AA99000
2FFFC000
0FFF4000
0FFE0000
0FFE0000
0BFE0000
0BFE0000
0BFE0000
0BFD0000
0BFD0000
03FE0000
03FE0000
03FE0000
03FE0000
02FE0000
02FD0000
02FE0000
02FFEA40
01FFFF40
01FFFF00
00FEFF00
0056AE00
00050800
ENDCHAR
STARTCHAR lacute
ENCODING 314
SWIDTH 438 0
DWIDTH 12 0
BBX 16 31 0 -2
BITMAP
000001D0
000007E0
00002FF4
0000BFFD
0003FFE4
0007F900
00024000
00000000
05AABD00
6FFFE000
0FFFD000
07FF8000
07FF8000
07FF8000
07FF4000
03FF4000
03FF4000
02FF4000
01FF4000
00FF4000
00FF4000
00FF0000
00FF0000
00FF0000
00BF4000
00BFFA80
00BFFF80
007FFF40
007F7F00
00612F00
00200900
ENDCHAR
STARTCHAR Lcommaaccent
ENCODING 315
SWIDTH 416 0
DWIDTH 12 0
BBX 13 38 0 -17
BITMAP
6AA99000
2FFFC000
0FFF4000
0FFE0000
0FFE0000
0BFE0000
0BFE0000
0BFE0000
0BFD0000
0BFD0000
03FE0000
03FE0000
03FE0000
03FE0000
02FE0000
02FD0000
02FE0000
02FFEA40
01FFFF40
01FFFF00
00FEFF00
0056AE00
00050800
00000000
00000000
01A55000
02FFE000
02FFF000
02FFF000
02FFF000
02FFF000
02FFF000
0157F000
0003E000
0007E000
0007D000
000BD000
00064000
ENDCHAR
STARTCHAR lcommaaccent
ENCODING 316
SWIDTH 438 0
DWIDTH 12 0
BBX 13 37 0 -16
BITMAP
05AABD00
6FFFE000
0FFFD000
07FF8000
07FF8000
07FF8000
07FF4000
03FF4000
03FF4000
02FF4000
01FF4000
00FF4000
00FF4000
00FF0000
00FF0000
00FF0000
00BF4000
00BFFA80
00BFFF80
007FFF40
007F7F00
00612F00
00200900
00000000
00655000
01FFF400
01FFF400
01FFF400
01FFF400
01FFF400
01FFF400
0056F400
0002F000
0003F000
0003F000
0003E000
00029000
ENDCHAR
STARTCHAR Lcaron
ENCODING 317
SWIDTH 714 0
DWIDTH 20 0
BBX 19 23 0 -2
BITMAP
6AA9A06554
2FFFC1FFF8
0FFF41FFFC
0FFE01FFFC
0FFE01FFFC
0BFE01FFFC
0BFE01FFFC
0BFE01FFFC
0BFD01AAFC
0BFD0000F8
03FE0001F8
03FE0001F4
03FE0002F4
03FE0002F0
02FE000000
02FE000000
02FE000000
02FFEA4000
01FFFF4000
01FFFF0000
00FFFF0000
0056AE0000
0005080000
ENDCHAR
STARTCHAR lcaron
ENCODING 318
SWIDTH 782 0
DWIDTH 22 0
BBX 21 23 0 -2
BITMAP
05AABD065540
6FFFE01FFF80
0FFFD01FFF80
07FF801FFF80
07FF801FFFC0
07FF801FFF80
07FF401FFF80
03FF402FFF80
03FF401ABF80
02FF40000F80
01FF40001F80
00FF40001F40
00FF40002F40
00FF00002F00
00FF00000000
00FF00000000
00BF40000000
00BFFA800000
00BFFF800000
007FFF400000
007F7F000000
00612F000000
002009000000
ENDCHAR
STARTCHAR Ldotaccent
ENCODING 319
SWIDTH 567 0
DWIDTH 16 0
BBX 18 23 0 -2
BITMAP
6AA9900000
2FFFC00000
0FFF400000
0FFE000000
0FFE016A40
0BFE1FFFC0
0BFE0FFFC0
0BFE0FFFC0
0BFD0FFFD0
0BFD0BFFD0
03FE0BFFC0
03FE0BFFC0
03FE0BEA80
03FE000000
02FE000000
02FD000000
02FE000000
02FFEA4000
01FFFF4000
01FFFF0000
00FEFF0000
0056AE0000
0005080000
ENDCHAR
STARTCHAR ldot
ENCODING 320
SWIDTH 660 0
DWIDTH 18 0
BBX 20 23 0 -2
BITMAP
05AABD0000
6FFFE00000
0FFFD00000
07FF800000
07FF800000
07FF800000
07FF41ABF8
03FF40FFFD
03FF40FFFC
02FF40FFFC
01FF40BFFD
00FF40BFFD
00FF40BFFD
00FF00BFFC
00FF006514
00FF000000
00BF400000
00BFFA8000
00BFFF8000
007FFF4000
007F7F0000
00612F0000
0020090000
ENDCHAR
STARTCHAR Lslash
ENCODING 321
SWIDTH 428 0
DWIDTH 12 0
BBX 13 23 0 -2
BITMAP
2AA99000
1FFF8000
0BFF4000
0BFE0000
0BFE0000
07FE0100
07FE1B00
07FFFF00
07FFFF40
1BFFFF80
BFFFFFC0
7FFFF900
3FFF4000
2FFE0000
1AFE0000
01FD0000
01FE0000
00FFEA40
00FFFF40
00FFFF00
00BEFF00
0066AE00
00010800
ENDCHAR
STARTCHAR lslash
ENCODING 322
SWIDTH 457 0
DWIDTH 13 0
BBX 14 23 0 -2
BITMAP
01AABE00
2FFFF400
0BFFD000
07FFC000
07FF8000
03FFC180
03FF9BC0
02FFFFD0
02FFFFE0
07FFFFF0
7FFFFFA0
3FFFF900
2FFF9000
1FFF4000
0EFF4000
00BF4000
00BF8000
007FFA90
007FFFC0
007FFF80
003FBF40
00351F40
00200600
ENDCHAR
STARTCHAR Nacute
ENCODING 323
SWIDTH 610 0
DWIDTH 17 0
BBX 17 34 1 -5
BITMAP
0000002C00
000000BD00
000002FE00
00001FFF80
0000BFFE40
0000FE9000
0000500000
0000000000
0558650000
BFF87FF800
BFFC3FF400
2FFD3FE000
2FFE3FD000
1FFF3FD000
1FFF7FD000
1FFFBFC000
1FFFFFC000
0FFFFF8000
0FFFFF8000
0FFFFF8000
0BFFFF4000
07FFFF4000
07FBFF4000
03F7FF4000
03F6FF0000
03F6FF0000
03F5FF0000
02F4FE0000
02F4BE0000
02F87A0000
0248790000
0204000000
0104400000
0004000000
ENDCHAR
STARTCHAR nacute
ENCODING 324
SWIDTH 664 0
DWIDTH 19 0
BBX 19 32 0 -3
BITMAP
0000000280
0000000BC0
0000007FE0
000001FFF8
00000BFFE4
00000FE400
0000050000
0000000000
56AA465550
3FFF83FFE0
1FFFC3FFC0
0FFFD2FF80
0BFFE2FF40
0BFFF2FF00
0BFFF3FE00
0BFFFBFE00
07FFFFFD00
07FFFFFD00
07FFFFFD00
03FFFFFC00
03FFFFFC00
02FFFFF800
01FEFFF800
01FDFFF400
01FDBFF400
01FD7FF000
01FD7FE000
00FD3FD000
00FD2FC000
00FD2F8000
00501A4000
0000014000
ENDCHAR
STARTCHAR Ncommaaccent
ENCODING 325
SWIDTH 610 0
DWIDTH 17 0
BBX 15 40 1 -19
BITMAP
05586500
BFF87FF8
BFFC3FF4
2FFD3FE0
2FFE3FD0
1FFF3FD0
1FFF7FD0
1FFFBFC0
1FFFFFC0
0FFFFF80
0FFFFF80
0FFFFF80
0BFFFF40
07FFFF40
07FBFF40
03F7FF40
03F6FF00
03F6FF00
03F5FF00
02F4FE00
02F4BE00
02F87A00
02487900
02040000
01044000
00040000
00000000
00165500
001FFF00
001FFF00
002FFF00
002FFF00
002FFF00
002FFF00
00057F00
00003F00
00003E00
00007E00
00007D00
00006800
ENDCHAR
STARTCHAR ncommaaccent
ENCODING 326
SWIDTH 664 0
DWIDTH 19 0
BBX 18 38 0 -17
BITMAP
56AA465550
3FFF83FFE0
1FFFC3FFC0
0FFFD2FF80
0BFFE2FF40
0BFFF2FF00
0BFFF3FE00
0BFFFBFE00
07FFFFFD00
07FFFFFD00
07FFFFFD00
03FFFFFC00
03FFFFFC00
02FFFFF800
01FEFFF800
01FDFFF400
01FDBFF400
01FD7FF000
01FD7FE000
00FD3FD000
00FD2FC000
00FD2F8000
00501A4000
0000014000
0000000000
0001A55000
0002FFE000
0002FFE000
0002FFF000
0002FFF000
0003FFF000
0003FFF000
000157E000
000003E000
000007E000
00000BD000
00000BD000
0000064000
ENDCHAR
STARTCHAR Ncaron
ENCODING 327
SWIDTH 610 0
DWIDTH 17 0
BBX 15 38 1 -5
BITMAP
02400140
0FC007D0
0FE00FF0
0BF42FE0
07F87FC0
02FDFF80
01FFFF00
00FFFE00
007FFC00
003FF800
00001000
00000000
05586500
BFF87FF8
BFFC3FF4
2FFD3FE0
2FFE3FD0
1FFF3FD0
1FFF7FD0
1FFFBFC0
1FFFFFC0
0FFFFF80
0FFFFF80
0FFFFF80
0BFFFF40
07FFFF40
07FBFF40
03F7FF40
03F6FF00
03F6FF00
03F5FF00
02F4FE00
02F4BE00
02F87A00
02487900
02040000
01044000
00040000
ENDCHAR
STARTCHAR ncaron
ENCODING 328
SWIDTH 664 0
DWIDTH 19 0
BBX 18 36 0 -3
BITMAP
0014001400
00BD007D00
00FF00FF40
00BF41FE00
003FC3FD00
002FEBF800
001FFFF400
000BFFE000
0007FFD000
0003FF8000
0000000000
0000000000
56AA465550
3FFF83FFE0
1FFFC3FFC0
0FFFD2FF80
0BFFE2FF40
0BFFF2FF00
0BFFF3FE00
0BFFFBFE00
07FFFFFD00
07FFFFFD00
07FFFFFD00
03FFFFFC00
03FFFFFC00
02FFFFF800
01FEFFF800
01FDFFF400
01FDBFF400
01FD7FF000
01FD7FE000
00FD3FD000
00FD2FC000
00FD2F8000
00501A4000
0000014000
ENDCHAR
STARTCHAR Omacron
ENCODING 332
SWIDTH 504 0
DWIDTH 14 0
BBX 14 29 0 -3
BITMAP
0A955900
0FFFFD00
0FFFFD00
0AFAAD00
00000000
001A4000
01FFF900
0BFFFF40
1FFFFFC0
3FFFFFC0
7FFFFFD0
3FFFFFD0
3FFFFFC0
3FFFFFD0
2FF9FFD0
2FF0FFD0
1FE0BFD0
1FE0BFD0
1FE0BFC0
0FF0BF80
0FF0BF40
0BF0FF40
07F4FF00
07FEFE00
07FFFD00
01FFFC00
0035E800
0010C400
00004000
ENDCHAR
STARTCHAR omacron
ENCODING 333
SWIDTH 545 0
DWIDTH 15 0
BBX 14 28 1 -2
BITMAP
1A955800
1FFFFC00
1FFFFC00
16FAA800
00000000
006A9000
07FFF800
2FFFFF40
7FFFFF80
FFFFFFE0
FFFFFFD0
FFFFFFE0
FFFFFFE0
FFFFFFE0
BFF6FFE0
BFD1FFE0
7FD1FFD0
7FD1FFD0
7FD0FFC0
3FD0FF80
2FD1FF40
2FE2FF00
1FE2FE00
0FFBFE00
0FFFFD00
06FFF800
0023E400
00015400
ENDCHAR
STARTCHAR Obreve
ENCODING 334
SWIDTH 504 0
DWIDTH 14 0
BBX 14 34 0 -3
BITMAP
0BE00400
07E01FC0
03F02F80
03FEBF40
02FFFF00
016FFD00
0018F800
00004800
00000000
00000000
001A4000
01FFF900
0BFFFF40
1FFFFFC0
3FFFFFC0
7FFFFFD0
3FFFFFD0
3FFFFFC0
3FFFFFD0
2FF9FFD0
2FF0FFD0
1FE0BFD0
1FE0BFD0
1FE0BFC0
0FF0BF80
0FF0BF40
0BF0FF40
07F4FF00
07FEFE00
07FFFD00
01FFFC00
0035E800
0010C400
00004000
ENDCHAR
STARTCHAR obreve
ENCODING 335
SWIDTH 545 0
DWIDTH 15 0
BBX 14 33 1 -2
BITMAP
1FC01400
0FC07F40
0FD0BF00
0BFAFE00
07FFFD00
02BFF800
0022E400
00015400
00000000
00000000
006A9000
07FFF800
2FFFFF40
7FFFFF80
FFFFFFE0
FFFFFFD0
FFFFFFE0
FFFFFFE0
FFFFFFE0
BFF6FFE0
BFD1FFE0
7FD1FFD0
7FD1FFD0
7FD0FFC0
3FD0FF80
2FD1FF40
2FE2FF00
1FE2FE00
0FFBFE00
0FFFFD00
06FFF800
0023E400
00015400
ENDCHAR
STARTCHAR Ohungarumlaut
ENCODING 336
SWIDTH 504 0
DWIDTH 14 0
BBX 15 35 0 -3
BITMAP
00D00D00
02F41F90
03FD2FF4
07FC3FD0
0BF07F40
1FD0BE00
2F41F800
3D02E000
38018000
00000000
00000000
001A4000
01FFF900
0BFFFF40
1FFFFFC0
3FFFFFC0
7FFFFFD0
3FFFFFD0
3FFFFFC0
3FFFFFD0
2FF9FFD0
2FF0FFD0
1FE0BFD0
1FE0BFD0
1FE0BFC0
0FF0BF80
0FF0BF40
0BF0FF40
07F4FF00
07FEFE00
07FFFD00
01FFFC00
0035E800
0010C400
00004000
ENDCHAR
STARTCHAR ohungarumlaut
ENCODING 337
SWIDTH 545 0
DWIDTH 15 0
BBX 14 34 1 -2
BITMAP
02801800
03F42E90
07FC3FF0
0BF87FC0
1FE0FF00
2F81FD00
3F02F400
BC03D000
74024000
00000000
00000000
006A9000
07FFF800
2FFFFF40
7FFFFF80
FFFFFFE0
FFFFFFD0
FFFFFFE0
FFFFFFE0
FFFFFFE0
BFF6FFE0
BFD1FFE0
7FD1FFD0
7FD1FFD0
7FD0FFC0
3FD0FF80
2FD1FF40
2FE2FF00
1FE2FE00
0FFBFE00
0FFFFD00
06FFF800
0023E400
00015400
ENDCHAR
STARTCHAR OE
ENCODING 338
SWIDTH 789 0
DWIDTH 22 0
BBX 21 25 0 -4
BITMAP
001A56AA5400
01FFFFFFFFC0
0BFFFFFFFF80
1FFFFFFFFF00
3FFFFFFFFE00
7FFFFFFFFD00
3FFFFFFFFC00
3FFFFFFFF800
3FFFFFFFF800
2FF9FFE6B800
2FF0FFE00000
2FE0BFE50000
1FE0BFFFD000
1FE0BFFFC000
0FF0BFFFC000
0FF0BFEA8000
0BF0FFD00000
07F4FFEA5000
07FEFFFFE000
07FFFFFFD000
01FFFC7ED000
0035E8688000
0024C4508000
0010C4504000
000040504000
ENDCHAR
STARTCHAR oe
ENCODING 339
SWIDTH 778 0
DWIDTH 22 0
BBX 21 23 0 -2
BITMAP
001A65555000
02FFFFFFFF80
0BFFFFFFFF40
1FFFFFFFFE00
3FFFFFFFFC00
3FFFFFFFF800
7FFFFFFFF800
3FFFFFFFF400
2FFFFFFFF400
2FF9FFFFF400
1FF4BFE06000
1FF0BFE00000
0FF07FEA4000
0FF07FFF8000
0BF07FFF8000
0BF0BFFF8000
07F4BFD54000
07F8FFC00000
03FEFFEA8000
03FFFFFFC000
01BFFFFF8000
0015FCBA8000
000084008000
ENDCHAR
STARTCHAR Racute
ENCODING 340
SWIDTH 599 0
DWIDTH 17 0
BBX 18 31 0 -2
BITMAP
0000000E00
0000007F00
000001FF40
000007FFD0
00002FFE90
00007F9000
0000240000
0000000000
001AA60000
6FFFFFE000
2FFFFFFC00
0BFFFFFF00
03FFFFFF00
02FFFFFF00
01FFFFFF00
01FFFFFF00
01FFEFFF00
01FF87FF00
01FF82FE00
00BF83FE00
00BFDBFD00
00BFFFFC00
007FFFF800
003FFFE000
003F8FF000
003F8BF400
002F8BF400
002FC7F400
002FC7F400
001A42F800
0001011400
ENDCHAR
STARTCHAR racute
ENCODING 341
SWIDTH 616 0
DWIDTH 17 0
BBX 17 31 1 -2
BITMAP
0000002C00
000000BD00
000002FE00
00001FFF80
0000BFFE40
0000FE5000
0000500000
0000000000
016A540000
AFFFFF9000
BFFFFFF800
2FFFFFFE00
0FFFFFFE00
0BFFFFFE00
07FFFFFE00
07FFFFFD00
07FFFFFC00
03FE0FFC00
03FE0BF800
03FE0BF800
03FF5FF400
02FFFFF400
02FFFFE000
01FFFFD000
01FEBF4000
01FE3F8000
01FE3F8000
01FE3F8000
01FE3F8000
01F92F8000
0040068000
ENDCHAR
STARTCHAR Rcommaaccent
ENCODING 342
SWIDTH 599 0
DWIDTH 17 0
BBX 16 37 0 -16
BITMAP
001AA600
6FFFFFE0
2FFFFFFC
0BFFFFFF
03FFFFFF
02FFFFFF
01FFFFFF
01FFFFFF
01FFEFFF
01FF87FF
01FF82FE
00BF83FE
00BFDBFD
00BFFFFC
007FFFF8
003FFFE0
003F8FF0
003F8BF4
002F8BF4
002FC7F4
002FC7F4
001A42F8
00010114
00000000
00065500
000FFF40
000FFF40
000FFF80
000FFF80
001FFF80
001FFF80
00056F40
00001F40
00002F40
00003F00
00003F00
00002900
ENDCHAR
STARTCHAR rcommaaccent
ENCODING 343
SWIDTH 616 0
DWIDTH 17 0
BBX 16 38 1 -17
BITMAP
016A5400
AFFFFF90
BFFFFFF8
2FFFFFFE
0FFFFFFE
0BFFFFFE
07FFFFFE
07FFFFFD
07FFFFFC
03FE0FFC
03FE0BF8
03FE0BF8
03FF5FF4
02FFFFF4
02FFFFE0
01FFFFD0
01FEBF40
01FE3F80
01FE3F80
01FE3F80
01FE3F80
01F92F80
00400680
00000000
00000000
001A5500
002FFE00
002FFF00
002FFF00
002FFF00
002FFF00
002FFF00
00157F00
00003E00
00007E00
00007D00
0000BD00
00006400
ENDCHAR
STARTCHAR Rcaron
ENCODING 344
SWIDTH 599 0
DWIDTH 17 0
BBX 16 35 0 -2
BITMAP
00600020
01F800B8
02FD01FE
00FF03FD
00BF4BF8
007FDFF4
002FFFE0
001FFFC0
000FFF80
0007FF00
00000100
00000000
001AA600
6FFFFFE0
2FFFFFFC
0BFFFFFF
03FFFFFF
02FFFFFF
01FFFFFF
01FFFFFF
01FFEFFF
01FF87FF
01FF82FE
00BF83FE
00BFDBFD
00BFFFFC
007FFFF8
003FFFE0
003F8FF0
003F8BF4
002F8BF4
002FC7F4
002FC7F4
001A42F8
00010114
ENDCHAR
STARTCHAR rcaron
ENCODING 345
SWIDTH 616 0
DWIDTH 17 0
BBX 16 35 1 -2
BITMAP
01800080
0BE003E0
0BF40BF8
07F81FF0
02FD2FE0
01FF7FC0
00FFFF80
007FFF00
003FFE00
002FFC00
00000000
00000000
016A5400
AFFFFF90
BFFFFFF8
2FFFFFFE
0FFFFFFE
0BFFFFFE
07FFFFFE
07FFFFFD
07FFFFFC
03FE0FFC
03FE0BF8
03FE0BF8
03FF5FF4
02FFFFF4
02FFFFE0
01FFFFD0
01FEBF40
01FE3F80
01FE3F80
01FE3F80
01FE3F80
01F92F80
00400680
ENDCHAR
STARTCHAR Sacute
ENCODING 346
SWIDTH 504 0
DWIDTH 14 0
BBX 16 31 0 -2
BITMAP
000000B0
000002F4
00000BF8
00003FFE
0001FFF9
0002FA40
00014000
00000000
00069000
01BFFD00
07FFFF40
0FFFFFD0
1FFFFFD0
3FFFFFD0
3FFFFFD0
7FFFFFD0
7FFFFFD0
7FF9FFD0
7FF4BFD0
3FF90150
2FFFE000
0BFFFD00
02FFFF00
001BFF40
0150FF40
1FF4BF40
0FFAFF00
0BFFFD00
03FFFC00
01EAA400
00105000
ENDCHAR
STARTCHAR sacute
ENCODING 347
SWIDTH 481 0
DWIDTH 13 0
BBX 16 31 0 -2
BITMAP
000000A0
000002F0
00001FF8
00007FFE
0002FFF9
0003F940
00014000
00000000
001A9000
01FFF800
07FFFE00
0FFFFF80
2FFFFFC0
3FFFFF80
3FFFFF80
7FFFFF80
7FFFFF40
7FF6FF40
3FF1FF40
3FF45740
2FFF9000
1FFFF400
07FFF800
007FFC00
0002FD00
0BF1FD00
0FF5FC00
0BFFF800
03FFF000
02FFE000
00500000
ENDCHAR
STARTCHAR Scircumflex
ENCODING 348
SWIDTH 504 0
DWIDTH 14 0
BBX 14 35 0 -2
BITMAP
00001000
003FF800
007FFC00
00FFFE00
01FFFF00
02FDBF80
07F43FC0
0BE01FE0
0F8007F0
0A0001D0
00000000
00000000
00069000
01BFFD00
07FFFF40
0FFFFFD0
1FFFFFD0
3FFFFFD0
3FFFFFD0
7FFFFFD0
7FFFFFD0
7FF9FFD0
7FF4BFD0
3FF90150
2FFFE000
0BFFFD00
02FFFF00
001BFF40
0150FF40
1FF4BF40
0FFAFF00
0BFFFD00
03FFFC00
01EAA400
00105000
ENDCHAR
STARTCHAR scircumflex
ENCODING 349
SWIDTH 481 0
DWIDTH 13 0
BBX 14 35 0 -2
BITMAP
00001000
007FF000
00FFF800
01FFFD00
02FFFE00
07FDFF40
0BF07F80
0FD02FD0
2F400BE0
1D000280
00000000
00000000
001A9000
01FFF800
07FFFE00
0FFFFF80
2FFFFFC0
3FFFFF80
3FFFFF80
7FFFFF80
7FFFFF40
7FF6FF40
3FF1FF40
3FF45740
2FFF9000
1FFFF400
07FFF800
007FFC00
0002FD00
0BF1FD00
0FF5FC00
0BFFF800
03FFF000
02FFE000
00500000
ENDCHAR
STARTCHAR Scedilla
ENCODING 350
SWIDTH 504 0
DWIDTH 14 0
BBX 14 31 0 -10
BITMAP
00069000
01BFFD00
07FFFF40
0FFFFFD0
1FFFFFD0
3FFFFFD0
3FFFFFD0
7FFFFFD0
7FFFFFD0
7FF9FFD0
7FF4BFD0
3FF90150
2FFFE000
0BFFFD00
02FFFF00
001BFF40
0150FF40
1FF4BF40
0FFAFF00
0BFFFD00
03FFFC00
01EBE400
0017D000
000B4000
000F5400
000FFC00
0001BC00
00007C00
000AB800
000FF800
00005400
ENDCHAR
STARTCHAR scedilla
ENCODING 351
SWIDTH 481 0
DWIDTH 13 0
BBX 13 31 0 -10
BITMAP
001A9000
01FFF800
07FFFE00
0FFFFF80
2FFFFFC0
3FFFFF80
3FFFFF80
7FFFFF80
7FFFFF40
7FF6FF40
3FF1FF40
3FF45740
2FFF9000
1FFFF400
07FFF800
007FFC00
0002FD00
0BF1FD00
0FF5FC00
0BFFF800
03FFF000
02FFE000
006F0000
002D0000
003D5000
003FF000
0006F000
0001F000
002AE000
003FE000
00015000
ENDCHAR
STARTCHAR Scaron
ENCODING 352
SWIDTH 503 0
DWIDTH 14 0
BBX 14 38 0 -2
BITMAP
01000100
1F400B40
3FC01FD0
1FE03FD0
0FF0BF80
0BF9FF40
03FFFE00
02FFFC00
01FFF800
00BFF000
00559000
00000000
00000000
00000000
00000000
00069000
01BFFD00
07FFFF40
0FFFFFD0
1FFFFFD0
3FFFFFD0
3FFFFFD0
7FFFFFD0
7FFFFFD0
7FF9FFD0
7FF4FFC0
3FF90150
2FFFE000
0BFFFD00
02FFFF00
001BFF40
0550FF40
1FF4BF40
0FFAFF00
0BFFFD00
03FFFC00
01EAA400
00105000
ENDCHAR
STARTCHAR scaron
ENCODING 353
SWIDTH 479 0
DWIDTH 13 0
BBX 13 37 0 -2
BITMAP
1E000A00
7F402F80
3FC07FC0
1FE0BF40
0FF1FF00
0BFBFD00
03FFFC00
02FFF400
01FFF000
00AA9000
00000000
00000000
00000000
00000000
001A9000
01FFF800
07FFFE00
0FFFFF80
2FFFFF80
3FFFFF80
7FFFFF80
7FFFFF40
7FFFFF40
7FF6FF40
3FF1FF40
3FF45B40
2FFF9000
1FFFF000
07FFF800
007FFC00
0002FD00
0BF1FD00
0FF6FC00
0BFFF800
03FFF000
02FFE000
00500000
ENDCHAR
STARTCHAR Tcommaaccent
ENCODING 354
SWIDTH 622 0
DWIDTH 17 0
BBX 16 33 1 -12
BITMAP
05555500
BFFFFFE9
7FFFFFFD
3FFFFFF4
2FFFFFF0
1FFFFFF4
0FFFFFF4
0FFFFFF0
0FFFFFF0
0FFFFFE0
095FF450
000FF400
000FF400
000FF400
000FF400
000FF400
000FF000
000FF000
000BF000
000BF400
000BF400
000BF400
000FE000
000BE000
0003D000
00078000
000B9400
000BFD00
00017D00
00003D00
0006BD00
000BFD00
00001400
ENDCHAR
STARTCHAR tcommaaccent
ENCODING 355
SWIDTH 683 0
DWIDTH 19 0
BBX 17 33 1 -12
BITMAP
01AAAA9400
BFFFFFFFC0
BFFFFFFF80
3FFFFFFF00
2FFFFFFD00
1FFFFFFD00
0FFFFFFD00
0FFFFFFD00
0BFFFFFD00
0BFFFEFC00
0A47FE1400
0007FE0000
0003FE0000
0003FE0000
0003FE0000
0003FE0000
0003FE0000
0002FD0000
0002FE0000
0001FD0000
0002FD0000
0001FD0000
0001FD0000
0000FD0000
0000B90000
0000F00000
0001E54000
0001FF8000
00001B8000
00000B4000
0001AF4000
0001FF4000
0000050000
ENDCHAR
STARTCHAR Tcaron
ENCODING 356
SWIDTH 622 0
DWIDTH 17 0
BBX 16 36 1 -3
BITMAP
02400240
1FC007D0
1FE00FF0
0BF42FE0
07F87FC0
03FDFF80
01FFFF00
00FFFD00
00BFFC00
003FF400
00001000
00000000
05555500
BFFFFFE9
7FFFFFFD
3FFFFFF4
2FFFFFF0
1FFFFFF4
0FFFFFF4
0FFFFFF0
0FFFFFF0
0FFFFFE0
095FF450
000FF400
000FF400
000FF400
000FF400
000FF400
000FF000
000FF000
000BF000
000BF400
000BF400
000BF400
000FE000
00095000
ENDCHAR
STARTCHAR tcaron
ENCODING 357
SWIDTH 622 0
DWIDTH 17 0
BBX 16 36 1 -3
BITMAP
01800080
07E002E0
0BF407F8
03FC0FF4
02FD2FE0
01FF7FC0
00BFFF80
007FFF00
003FFE00
001FFC00
00000400
00000000
05555500
BFFFFFE9
7FFFFFFD
3FFFFFF4
2FFFFFF0
1FFFFFF4
0FFFFFF4
0FFFFFF0
0FFFFFF0
0FFFFFE0
095FF450
000FF400
000FF400
000FF400
000FF400
000FF400
000FF000
000FF000
000BF000
000BF400
000BF400
000BF400
000FE000
00095000
ENDCHAR
STARTCHAR Utilde
ENCODING 360
SWIDTH 637 0
DWIDTH 18 0
BBX 17 31 0 -2
BITMAP
00900B4000
03F06FE000
0BFEFFF400
07FFFFFC00
01FFEBF400
007E418000
0000000000
0000000000
05AA055000
6FFE0BFE40
0FFF0BFF40
0BFE0BFE00
0BFE0BFE00
07FF0BFD00
07FF0BFC00
07FF0BFC00
03FF0FF800
03FF0FF400
02FE0FF400
02FE0FF000
02FE0FF000
02FE1FF000
02FF1FE000
02FF1FE000
01FF1FE000
00FFBFD000
00FFFFD000
00BFBF8000
002E290000
0018180000
0000040000
ENDCHAR
STARTCHAR utilde
ENCODING 361
SWIDTH 708 0
DWIDTH 20 0
BBX 19 29 1 0
BITMAP
00900B4000
07F06FE000
0BFEFFF400
07FFFFFC00
01FFEBF400
007E418000
0000000000
0000000000
01AA014000
BFFF03FA40
3FFE03FFF8
2FFF07FFE0
1FFE07FFC0
0FFF03FF80
0FFF03FF40
0BFF47FF00
0BFF47FE00
07FF47FE00
07FF07FD00
03FF07FD00
03FF0BFD00
03FF0BFC00
03FF4BFC00
02FF4BF800
01FF4FF400
00FFEFF400
00BFFFF000
007FBFE000
001A5A9000
ENDCHAR
STARTCHAR Umacron
ENCODING 362
SWIDTH 637 0
DWIDTH 18 0
BBX 17 28 0 -2
BITMAP
0069555000
00BFFFE000
00FFFFE000
005FAAD000
0000000000
05AA055000
6FFE0BFE40
0FFF0BFF40
0BFE0BFE00
0BFE0BFE00
07FF0BFD00
07FF0BFC00
07FF0BFC00
03FF0FF800
03FF0FF400
02FE0FF400
02FE0FF000
02FE0FF000
02FE1FF000
02FF1FE000
02FF1FE000
01FF1FE000
00FFBFD000
00FFFFD000
00BFBF8000
002E290000
0018180000
0000040000
ENDCHAR
STARTCHAR umacron
ENCODING 363
SWIDTH 708 0
DWIDTH 20 0
BBX 19 26 1 0
BITMAP
0069555000
00BFFFE000
00FFFFE000
005FAAD000
0000000000
01AA014000
BFFF03FA40
3FFE03FFF8
2FFF07FFE0
1FFE07FFC0
0FFF03FF80
0FFF03FF40
0BFF47FF00
0BFF47FE00
07FF47FE00
07FF07FD00
03FF07FD00
03FF0BFD00
03FF0BFC00
03FF4BFC00
02FF4BF800
01FF4FF400
00FFEFF400
00BFFFF000
007FBFE000
001A5A9000
ENDCHAR
STARTCHAR Ubreve
ENCODING 364
SWIDTH 637 0
DWIDTH 18 0
BBX 17 33 0 -2
BITMAP
007E005000
007F01FC00
003F42FC00
003FEBF800
002FFFF000
000AFFE000
00008B9000
0000054000
0000000000
0000000000
05AA055000
6FFE0BFE40
0FFF0BFF40
0BFE0BFE00
0BFE0BFE00
07FF0BFD00
07FF0BFC00
07FF0BFC00
03FF0FF800
03FF0FF400
02FE0FF400
02FE0FF000
02FE0FF000
02FE1FF000
02FF1FE000
02FF1FE000
01FF1FE000
00FFBFD000
00FFFFD000
00BFBF8000
002E290000
0018180000
0000040000
ENDCHAR
STARTCHAR ubreve
ENCODING 365
SWIDTH 708 0
DWIDTH 20 0
BBX 19 31 1 0
BITMAP
007F005000
007F01FD00
003F42FC00
002FEBF800
001FFFF400
000AFFE000
00008B9000
0000055000
0000000000
0000000000
01AA014000
BFFF03FA40
3FFE03FFF8
2FFF07FFE0
1FFE07FFC0
0FFF03FF80
0FFF03FF40
0BFF47FF00
0BFF47FE00
07FF47FE00
07FF07FD00
03FF07FD00
03FF0BFD00
03FF0BFC00
03FF4BFC00
02FF4BF800
01FF4FF400
00FFEFF400
00BFFFF000
007FBFE000
001A5A9000
ENDCHAR
STARTCHAR Uring
ENCODING 366
SWIDTH 637 0
DWIDTH 18 0
BBX 17 33 0 -2
BITMAP
0002FD0000
000FFF4000
001F5FC000
001E03C000
000E038000
000F9B4000
000BFE0000
0000B80000
0000000000
0000000000
05AA055000
6FFE0BFE40
0FFF0BFF40
0BFE0BFE00
0BFE0BFE00
07FF0BFD00
07FF0BFC00
07FF0BFC00
03FF0FF800
03FF0FF400
02FE0FF400
02FE0FF000
02FE0FF000
02FE1FF000
02FF1FE000
02FF1FE000
01FF1FE000
00FFBFD000
00FFFFD000
00BFBF8000
002E290000
0018180000
0000040000
ENDCHAR
STARTCHAR uring
ENCODING 367
SWIDTH 708 0
DWIDTH 20 0
BBX 19 31 1 0
BITMAP
0002FE0000
000BFF8000
000F9BD000
000F02D000
000B02C000
000B9B8000
0007FF0000
0000680000
0000000000
0000000000
01AA014000
BFFF03FA40
3FFE03FFF8
2FFF07FFE0
1FFE07FFC0
0FFF03FF80
0FFF03FF40
0BFF47FF00
0BFF47FE00
07FF47FE00
07FF07FD00
03FF07FD00
03FF0BFD00
03FF0BFC00
03FF4BFC00
02FF4BF800
01FF4FF400
00FFEFF400
00BFFFF000
007FBFE000
001A5A9000
ENDCHAR
STARTCHAR Uhungarumlaut
ENCODING 368
SWIDTH 637 0
DWIDTH 18 0
BBX 17 34 0 -2
BITMAP
000D00A000
001F80F900
002FE1FF80
007FD3FE00
00BF47F800
00FD0BE000
01F80F8000
03E01E0000
02801C0000
0000000000
0000000000
05AA055000
6FFE0BFE40
0FFF0BFF40
0BFE0BFE00
0BFE0BFE00
07FF0BFD00
07FF0BFC00
07FF0BFC00
03FF0FF800
03FF0FF400
02FE0FF400
02FE0FF000
02FE0FF000
02FE1FF000
02FF1FE000
02FF1FE000
01FF1FE000
00FFBFD000
00FFFFD000
00BFBF8000
002E290000
0018180000
0000040000
ENDCHAR
STARTCHAR uhungarumlaut
ENCODING 369
SWIDTH 708 0
DWIDTH 20 0
BBX 19 32 1 0
BITMAP
000D00A000
001F80F900
002FE2FF80
007FD3FE00
00BF47F800
00FD0BE000
01F80F8000
03E01E0000
02801C0000
0000000000
0000000000
01AA014000
BFFF03FA40
3FFE03FFF8
2FFF07FFE0
1FFE07FFC0
0FFF03FF80
0FFF03FF40
0BFF47FF00
0BFF47FE00
07FF47FE00
07FF07FD00
03FF07FD00
03FF0BFD00
03FF0BFC00
03FF4BFC00
02FF4BF800
01FF4FF400
00FFEFF400
00BFFFF000
007FBFE000
001A5A9000
ENDCHAR
STARTCHAR Uogonek
ENCODING 370
SWIDTH 637 0
DWIDTH 18 0
BBX 17 29 0 -8
BITMAP
05AA055000
6FFE0BFE40
0FFF0BFF40
0BFE0BFE00
0BFE0BFE00
07FF0BFD00
07FF0BFC00
07FF0BFC00
03FF0FF800
03FF0FF400
02FE0FF400
02FE0FF000
02FE0FF000
02FE1FF000
02FF1FE000
02FF1FE000
01FF1FE000
00FFBFD000
00FFFFD000
00BFFF8000
002E7E0000
0018BD0000
0000BC0000
0000FC0000
0000FD0000
0000BF9400
00007FFD00
00002FFD00
00000BFD00
ENDCHAR
STARTCHAR uogonek
ENCODING 371
SWIDTH 662 0
DWIDTH 19 0
BBX 19 29 1 -8
BITMAP
01AA014000
BFFE07FA40
3FFE07FFF4
2FFE07FFE0
2FFE07FFC0
1FFF07FF80
0FFF07FF40
0FFF07FF00
0BFF07FE00
07FF07FD00
07FF07FD00
07FF0BFC00
03FF0BFC00
03FF0BFC00
03FF0BFC00
02FF4FF800
01FF4FF400
00FFAFF400
00BFFFF000
00BFFFE000
001FFA9000
0003E00000
0007D00000
0007D00000
0007E00000
0007F95000
0003FFF000
0001FFE000
00006FE000
ENDCHAR
STARTCHAR Wcircumflex
ENCODING 372
SWIDTH 777 0
DWIDTH 22 0
BBX 22 33 0 0
BITMAP
000000400000
0000FFD00000
0002FFF00000
0003FFF40000
0007FFFC0000
000FF7FD0000
001FD1FF0000
002F407F8000
007E001FC000
0078000B4000
000000000000
000000000000
00150F429400
06FE1F83FF40
7FFE2F87FF90
1BFE2FCBFD00
03FF3FCBFC00
01FF7FDFF000
00FF7FFFE000
00BFBFFFD000
00BFFFFF8000
003FFFFF4000
002FFFFF4000
000FFFFF4000
000FFFFF0000
000BFFFF0000
0007FBFE0000
0007FBFD0000
0003F6FD0000
0002F6F80000
0001F1F40000
0000F1F40000
000065B00000
ENDCHAR
STARTCHAR wcircumflex
ENCODING 373
SWIDTH 704 0
DWIDTH 20 0
BBX 20 33 0 0
BITMAP
0000010000
0003FF8000
0007FFD000
000BFFE000
001FFFF400
002FDBF800
003F83FD00
00BE00FE00
00F8007F00
00B0001D00
0000000000
0000000000
0000281000
6BFC3D1FE4
2FFC7E1FF9
07FD7F2FF0
03FDBF2FE0
01FDBF7FC0
01FEFFFF80
00FFFFFF40
00FFFFFF00
007FFFFE00
003FFFFD00
001FFFFD00
001FFFFD00
000FFFFC00
000BFBFC00
000BF7FC00
0007F7FC00
0003F7F800
0002F2F800
0001F2F400
000052B400
ENDCHAR
STARTCHAR Ycircumflex
ENCODING 374
SWIDTH 688 0
DWIDTH 19 0
BBX 20 34 0 -1
BITMAP
0000010000
0003FF4000
000BFFC000
000FFFD000
001FFFF000
003FDFF400
007F47FC00
00BD01FE00
01F8007F00
01E0002D00
0000000000
0000000000
056A009000
6FFF40FF90
07FFC1FFFD
00BFE2FFD0
003FF7FF40
001FFFFE00
0007FFF800
0003FFF400
0001FFF000
0000FFF000
0000FFF000
00007FE000
00003FE000
00002FE000
00002FE000
00001FD000
00001FD000
00001FD000
00000FD000
00000FD000
00000FD000
00000A4000
ENDCHAR
STARTCHAR ycircumflex
ENCODING 375
SWIDTH 604 0
DWIDTH 17 0
BBX 15 35 1 -2
BITMAP
00001000
00BFF000
00FFF800
01FFFC00
03FFFE00
07F9FF00
0BF0BF80
1FC02FC0
2F400BE0
1D000380
00000000
00000000
05901400
BFF42FA4
2FF83FF8
07FC7FD0
01FDFF80
01FFFF00
007FFD00
003FFC00
003FF800
002FF800
001FF800
001FF400
000FF400
000BF400
000BF400
000BF000
000BF400
000BF000
000BF000
000BF000
000BE000
000BE000
00050000
ENDCHAR
STARTCHAR Ydieresis
ENCODING 376
SWIDTH 688 0
DWIDTH 19 0
BBX 20 31 0 -1
BITMAP
0000000500
02FA42FF80
02FF83FF80
02FF83FF80
02FF83FF80
02FF83FFC0
02FF83FF80
015A415540
0000000000
056A009000
6FFF40FF90
07FFC1FFFD
00BFE2FFD0
003FF7FF40
001FFFFE00
0007FFF800
0003FFF400
0001FFF000
0000FFF000
0000FFF000
00007FE000
00003FE000
00002FE000
00002FE000
00001FD000
00001FD000
00001FD000
00000FD000
00000FD000
00000FD000
00000A4000
ENDCHAR
STARTCHAR Zacute
ENCODING 377
SWIDTH 695 0
DWIDTH 19 0
BBX 19 30 1 -1
BITMAP
0000000380
0000001FC0
0000007FD0
000001FFF8
00000BFFA4
00001FE400
0000090000
0000000000
05AAAA4000
BFFFFFFE50
BFFFFFFFE0
7FFFFFFFC0
2FFFFFFF40
1FFFFFFF00
0FFFFFFE00
0BFFFFFC00
07FFFFF800
07FAFFF000
0742FF8000
0007FE0000
000BFC0000
000FF40000
001FE00000
001FC00000
003F800000
007FFA0000
00FFFF4000
01FFFE0000
00FBFE0000
0011580000
ENDCHAR
STARTCHAR zacute
ENCODING 378
SWIDTH 622 0
DWIDTH 17 0
BBX 17 31 1 -2
BITMAP
0000002C00
000000BD00
000002FE00
00001FFF80
00007FFE40
0000BE9000
0000500000
0000000000
06AAA94000
BFFFFFFD00
BFFFFFFC00
7FFFFFF800
2FFFFFF400
0FFFFFE000
0BFFFFE000
0BFFFFD000
07FFFFC000
07FAFF8000
0343FE0000
0107FC0000
000BF40000
000FE00000
001FD00000
001F800000
003F800000
003FA90000
007FFF0000
00BFFE0000
00BFFE0000
0062AD0000
0000040000
ENDCHAR
STARTCHAR Zdotaccent
ENCODING 379
SWIDTH 695 0
DWIDTH 19 0
BBX 18 32 1 -1
BITMAP
001ABF8000
002FFF8000
001FFF8000
001FFF8000
001FFFC000
000FFF8000
000FFF8000
000FFF8000
000A410000
0000000000
05AAAA4000
BFFFFFFE50
BFFFFFFFE0
7FFFFFFFC0
2FFFFFFF40
1FFFFFFF00
0FFFFFFE00
0BFFFFFC00
07FFFFF800
07FAFFF000
0742FF8000
0007FE0000
000BFC0000
000FF40000
001FE00000
001FC00000
003F800000
007FFA0000
00FFFF4000
01FFFE0000
00FBFE0000
0011580000
ENDCHAR
STARTCHAR zdotaccent
ENCODING 380
SWIDTH 622 0
DWIDTH 17 0
BBX 16 33 1 -2
BITMAP
01ABF800
00FFFD00
00FFFC00
00FFFC00
00BFFD00
00BFFD00
00BFFD00
00BFFC00
00651400
00000000
06AAA940
BFFFFFFD
BFFFFFFC
7FFFFFF8
2FFFFFF4
0FFFFFE0
0BFFFFE0
0BFFFFD0
07FFFFC0
07FAFF80
0343FE00
0107FC00
000BF400
000FE000
001FD000
001F8000
003F8000
003FA900
007FFF00
00BFFE00
00BFFE00
0062AD00
00000400
ENDCHAR
STARTCHAR Zcaron
ENCODING 381
SWIDTH 693 0
DWIDTH 19 0
BBX 18 37 1 -1
BITMAP
0010000000
00B000B000
02F802FC00
01FD03F800
00FF0BF400
00BF5FF000
003FFFD000
002FFFC000
001FFF4000
000FFF0000
0005590000
0000000000
0000000000
0000000000
0000000000
05AAAA4000
BFFFFFFE50
BFFFFFFFE0
7FFFFFFFC0
2FFFFFFF40
1FFFFFFF00
0FFFFFFE00
0BFFFFFC00
07FFFFF800
07FAFFF000
0742FF8000
0003FE0000
000BFC0000
000FF40000
001FE00000
001FC00000
003F800000
007FFA0000
00FFFF4000
01FFFE0000
00FBFE0000
0011580000
ENDCHAR
STARTCHAR zcaron
ENCODING 382
SWIDTH 621 0
DWIDTH 17 0
BBX 16 38 1 -2
BITMAP
01000100
0B800780
0FE00FE0
0BF02FE0
07F83FC0
03FDBF80
01FFFF00
00FFFE00
00BFFC00
007FF800
00155000
00000000
00000000
00000000
00000000
06AAA940
BFFFFFFD
BFFFFFFC
7FFFFFF8
2FFFFFF0
0FFFFFE0
0BFFFFE0
0BFFFFD0
07FFFFC0
07FAFF40
0343FE00
0107FC00
000BF400
000FE000
001FD000
001F8000
003F8000
003FA900
007FFF00
00BFFE00
00BFFE00
0062AD00
00000400
ENDCHAR
STARTCHAR DZ
ENCODING 497
SWIDTH 194 0
DWIDTH 5 0
BBX 1 1 0 0
BITMAP
00
ENDCHAR
STARTCHAR Dz
ENCODING 498
SWIDTH 194 0
DWIDTH 5 0
BBX 1 1 0 0
BITMAP
00
ENDCHAR
STARTCHAR dotlessj
ENCODING 567
SWIDTH 458 0
DWIDTH 13 0
BBX 13 22 -1 -1
BITMAP
006A9000
007FFF80
002FFF40
001FFF40
001FFF00
000FFE00
000BFD00
000BFD00
000BFD00
000BFD00
000BFD00
000BFC00
0007FC00
000BFC00
1A4BF800
BF8BF800
7FC7F800
2FDBF400
2FFFF400
1FFFF000
07FFE000
00165000
ENDCHAR
STARTCHAR circumflex
ENCODING 710
SWIDTH 528 0
DWIDTH 15 0
BBX 13 10 1 20
BITMAP
00004000
01FFC000
03FFE000
07FFF000
0BFFF800
1FE7FD00
2FC1FE00
3F40BF40
BD002F80
74000A00
ENDCHAR
STARTCHAR caron
ENCODING 711
SWIDTH 486 0
DWIDTH 14 0
BBX 13 11 0 19
BITMAP
09000900
7F001F40
7F803FC0
2FD0BF80
1FE1FF00
0FF7FE00
07FFFC00
03FFF800
02FFF000
00FFD000
00004000
ENDCHAR
STARTCHAR breve
ENCODING 728
SWIDTH 464 0
DWIDTH 13 0
BBX 11 8 1 -2
BITMAP
BE0040
BE02FC
7F03F8
3FEBF4
3FFFF0
17FFD0
014FC0
000880
ENDCHAR
STARTCHAR dotaccent
ENCODING 729
SWIDTH 388 0
DWIDTH 11 0
BBX 9 9 1 6
BITMAP
6AFE00
7FFF00
3FFF00
3FFF00
3FFF40
2FFF00
2FFF00
2FFF00
194500
ENDCHAR
STARTCHAR ring
ENCODING 730
SWIDTH 370 0
DWIDTH 10 0
BBX 8 8 1 8
BITMAP
1BF4
3FFD
BD7F
781F
781E
3E7C
2FF8
02D0
ENDCHAR
STARTCHAR ogonek
ENCODING 731
SWIDTH 360 0
DWIDTH 10 0
BBX 8 10 1 0
BITMAP
1A00
3F00
7E00
7D00
BD00
7E00
7F95
3FFE
1FFE
06FE
ENDCHAR
STARTCHAR tilde
ENCODING 732
SWIDTH 535 0
DWIDTH 15 0
BBX 13 6 1 -2
BITMAP
0800B400
7F06FE00
FFEFFF40
7FFFFF80
1FFEBF00
07E41800
ENDCHAR
STARTCHAR hungarumlaut
ENCODING 733
SWIDTH 554 0
DWIDTH 16 0
BBX 14 9 1 20
BITMAP
02802800
03E03E90
0BF87FE0
0FF4BF80
1FE0FF00
2F81FC00
7E02F000
B807C000
70034000
ENDCHAR
STARTCHAR dotaccentcmb
ENCODING 775
SWIDTH 396 0
DWIDTH 11 0
BBX 9 10 1 10
BITMAP
001400
6FFF00
3FFF00
3FFF00
3FFF40
2FFF40
2FFF40
2FFF00
2FFF00
150000
ENDCHAR
STARTCHAR uni030F
ENCODING 783
SWIDTH 549 0
DWIDTH 15 0
BBX 15 9 0 20
BITMAP
01801C00
1BD07E00
7FE1FF00
1FF0FF40
07F47F80
02F81FD0
00BD07E0
002E01F4
000900B0
ENDCHAR
STARTCHAR uni0311
ENCODING 785
SWIDTH 490 0
DWIDTH 14 0
BBX 11 8 1 10
BITMAP
005500
0BFF80
1FFFE0
2FFFF4
3F97F8
3F02FC
7F01FC
6A0014
ENDCHAR
STARTCHAR uni0326
ENCODING 806
SWIDTH 360 0
DWIDTH 10 0
BBX 8 13 1 -3
BITMAP
1954
3FFD
3FFE
3FFE
3FFE
7FFE
7FFE
15BE
007D
00BD
00FC
00FC
00A4
ENDCHAR
STARTCHAR endash
ENCODING 8211
SWIDTH 478 0
DWIDTH 13 0
BBX 11 6 1 8
BITMAP
155554
7FFFF8
7FFFF4
7FFFF0
7FFFF0
5BEAB0
ENDCHAR
STARTCHAR emdash
ENCODING 8212
SWIDTH 567 0
DWIDTH 16 0
BBX 13 6 1 8
BITMAP
15555540
7FFFFFC0
7FFFFF80
7FFFFF80
7FFFFF80
5BE6EB80
ENDCHAR
STARTCHAR quoteleft
ENCODING 8216
SWIDTH 373 0
DWIDTH 10 0
BBX 8 14 1 7
BITMAP
1A00
2F00
2F00
3F00
3E00
7E40
7FFF
7FFF
7FFF
7FFF
7FFF
7FFE
7FFE
7AFE
ENDCHAR
STARTCHAR quoteright
ENCODING 8217
SWIDTH 369 0
DWIDTH 10 0
BBX 8 14 1 7
BITMAP
5954
BFFD
BFFE
BFFE
BFFE
BFFE
BFFE
BFFE
6AFE
007D
00BD
00BC
00FC
00F8
ENDCHAR
STARTCHAR quotesinglbase
ENCODING 8218
SWIDTH 369 0
DWIDTH 10 0
BBX 8 14 1 7
BITMAP
5954
BFFD
BFFE
BFFE
BFFE
BFFE
BFFE
BFFE
6AFE
007D
00BD
00BC
00FC
00F8
ENDCHAR
STARTCHAR quotedblleft
ENCODING 8220
SWIDTH 687 0
DWIDTH 19 0
BBX 17 14 1 7
BITMAP
1A00068000
2F000FC000
2F000FC000
3F000F8000
3E001F8000
7E401F9000
7FFF2FFF80
7FFF2FFF80
7FFF2FFF80
7FFF2FFF80
7FFF2FFF80
7FFE2FFF80
7FFE1FFF80
7AFE1EBF80
ENDCHAR
STARTCHAR quotedblright
ENCODING 8221
SWIDTH 677 0
DWIDTH 19 0
BBX 17 14 1 7
BITMAP
6954155500
BFFC2FFF00
BFFC2FFF00
BFFD2FFF40
BFFD2FFF40
BFFC2FFF40
BFFC2FFF40
BFFC2FFF00
ABFC1ABF40
007C002F00
00BC003F00
00B8003E00
00F8007E00
00F4007D00
ENDCHAR
STARTCHAR quotedblbase
ENCODING 8222
SWIDTH 697 0
DWIDTH 20 0
BBX 17 14 1 -9
BITMAP
7FED0FFB80
7FFE0FFFC0
BFFE0FFFC0
BFFE0FFFC0
BFFE1FFFC0
BFFE1FFFC0
BFFE1FFFC0
BFFE1FFFC0
017E001FC0
007D000F80
00BD001F80
00BC001F80
00FC001F40
0054001500
ENDCHAR
STARTCHAR ellipsis
ENCODING 8230
SWIDTH 1462 0
DWIDTH 41 0
BBX 39 9 1 1
BITMAP
56B900005AE400016BE4
7FFD0000FFF80002FFF4
7FFD0000BFF80001FFF4
3FFD0000BFF80001FFF4
3FFE00007FFC0000FFF8
3FFE00007FFC0000FFF8
3FFD00007FF80000FFF4
2FFD00007FF80000FFF4
2A54000069540000A550
ENDCHAR
STARTCHAR guilsinglleft
ENCODING 8249
SWIDTH 459 0
DWIDTH 13 0
BBX 11 16 1 2
BITMAP
004000
02FFF8
02FFF0
03FFC0
0BFF40
1FFE00
7FFC00
FFF400
FFF000
7FFC00
3FFC00
0FFE00
07FF80
01FFD0
00BFF8
001AF8
ENDCHAR
STARTCHAR guilsinglright
ENCODING 8250
SWIDTH 432 0
DWIDTH 12 0
BBX 10 16 1 2
BITMAP
551000
FFF800
7FFC00
2FFD00
0BFF00
03FF80
01FFD0
00BFF0
00BFF0
00FFE0
01FFD0
07FF40
1FFE00
7FFC00
FFF400
AA9000
ENDCHAR
STARTCHAR fraction
ENCODING 8260
SWIDTH 371 0
DWIDTH 10 0
BBX 10 22 0 -1
BITMAP
5AAA50
7FFFE0
2FFFD0
0BFFC0
07FF80
03FF80
03FF40
03FF40
07FF00
07FF00
03FE00
03FE00
03FE00
02FF00
02FE00
01FD00
01FD00
01FD00
01FD00
00FD00
00ED00
000900
ENDCHAR
STARTCHAR Euro
ENCODING 8364
SWIDTH 587 0
DWIDTH 16 0
BBX 16 27 0 -6
BITMAP
0006AA00
002FFFD0
00BFFFF4
01FFFFF8
02FFFFFD
03FFFFFC
03FFFFFD
03FFFFFD
03FFFFFC
02FFDFFC
02FF4BFC
56FF97FC
7FFFC554
01FF0000
16FF5000
7FFFD640
00BF4BF0
00BF4FF0
007FAFE0
003FFFD0
002FFF40
00076E00
00021800
00021400
00021000
00012000
00001000
ENDCHAR
STARTCHAR trademark
ENCODING 8482
SWIDTH 785 0
DWIDTH 22 0
BBX 21 14 0 7
BITMAP
6AAA46FCBE80
7FFFD3FCBF80
3FFFC2FDFF40
2FFFC2FFFF00
2FFF81FFFF00
2FFF80FFFF00
04F840FFFF00
00F800FFFF00
00F800BBAE00
00F800BBAE00
00F800BBAD00
00B8007A7D00
00B800510500
00A400000000
ENDCHAR
STARTCHAR minus
ENCODING 8722
SWIDTH 478 0
DWIDTH 13 0
BBX 11 6 1 8
BITMAP
155554
7FFFF8
7FFFF4
7FFFF0
7FFFF0
5BEAB0
ENDCHAR
STARTCHAR commaaccent
ENCODING 63171
SWIDTH 360 0
DWIDTH 10 0
BBX 8 14 1 -4
BITMAP
5954
7FFD
BFFE
BFFE
BFFE
BFFE
BFFE
BFFE
6AFE
007D
00BD
00BC
00FC
00FC
ENDCHAR
STARTCHAR .notdef
ENCODING -1
SWIDTH 365 0
DWIDTH 10 0
BBX 8 19 1 0
BITMAP
AAA9
D559
C009
C009
C009
C009
C009
C009
C009
C009
C009
C009
C009
C009
C009
C009
C009
C009
FFFD
ENDCHAR
STARTCHAR .null
ENCODING -1
SWIDTH 0 0
DWIDTH 0 0
BBX 1 1 0 0
BITMAP
00
ENDCHAR
STARTCHAR nonmarkingreturn
ENCODING -1
SWIDTH 333 0
DWIDTH 9 0
BBX 1 1 0 0
BITMAP
00
ENDCHAR
ENDFONT
